<svg viewBox="0 0 237 196.94" xmlns="http://www.w3.org/2000/svg"><g fill="#25bea5"><path d="m208.59 181.09c-1.39 5.12-2.09 9.6-3.95 13.53-.66 1.39-4.18 1.94-6.4 1.96-4.15.05-9.43 1.75-11.92-2.56-1.98-3.43-1.94-8.03-2.89-12.56h-130.16c-1.8 4.38 1.77 10.7-3.58 13.44-3.27 1.67-7.61 1.67-11.46 1.68-11.02.04-7.62-8.96-8.81-15.5-5.22 0-10.26.01-15.3 0-9.96-.03-14.11-4.17-14.12-14.25 0-41.81.02-83.61.02-125.42 0-9.38-.07-18.77.02-28.15.1-9.29 4.21-13.26 13.56-13.26 41.18.06 82.36.19 123.54.2 28.46.02 56.92-.14 85.38-.2 10.46-.02 14.48 3.98 14.48 14.33 0 50.41.02 100.82-.07 151.23 0 3.1-.23 6.45-1.39 9.25-1.78 4.33-5.73 6.2-10.38 6.26-5.7.07-11.41.02-16.57.02zm-56.58-90.2c-.08-34-26.91-63.78-62.59-64.42-35.1-.63-64.56 28.04-65.08 62.97-.52 35.25 27.83 64.46 63.08 64.96 34.99.5 64.13-28.15 64.59-63.51zm41.49-39.91s0 .04 0 .05c5.23 0 10.47.05 15.7-.02 4.31-.06 4.95-2.84 4.97-6.47.02-3.67-1.06-5.79-5.05-5.77-10.31.06-20.62.1-30.92.05-4.1-.02-5.09 2.41-5.11 5.85-.02 3.56.8 6.35 5.18 6.32 5.07-.04 10.15 0 15.22 0zm.12 45.51v.02c5.23 0 10.46-.01 15.7 0 3.75.01 4.83-2.08 4.83-5.51 0-3.49-.29-6.62-4.72-6.65-10.62-.07-21.24-.06-31.86.11-4.18.07-4.47 3.3-4.46 6.48 0 3.22.91 5.62 4.82 5.56 5.23-.08 10.46-.02 15.7-.02zm.1 33.73s0 .03 0 .04c-5.23 0-10.46.05-15.69-.02-4.19-.05-4.94 2.58-4.93 5.96 0 3.35.74 6.05 4.88 6.07 10.46.03 20.92.12 31.37.08 4.41-.02 4.78-3.07 4.81-6.58.03-3.46-1.06-5.53-4.78-5.54-5.22-.01-10.44 0-15.67 0zm.42-22.95s0-.02 0-.03c-5.09 0-10.17.13-15.25-.04-4.1-.13-5.78 1.75-5.78 5.69 0 3.69.49 6.64 5.31 6.59 10.16-.12 20.33-.05 30.49.02 4.28.03 5.34-2.32 5.26-6.13-.08-3.66-.8-6.25-5.24-6.13-4.92.14-9.85.03-14.78.03zm-.77-33.56s0 .03 0 .05c5.23 0 10.46.01 15.69 0 4.27-.01 5.1-2.58 5.13-6.29.03-3.65-1.05-5.89-4.98-5.89-10.3 0-20.6.08-30.9.03-4-.02-5.21 2.18-5.22 5.73 0 3.53.64 6.4 5.07 6.38 5.07-.02 10.14 0 15.21 0z"/><path d="m100.6 80.82c5.04-2.67 9.49-5.54 14.31-7.47 11.13-4.44 20.43.35 23.58 11.87 1.8 6.59 1.84 13.23-1.08 19.57-3.06 6.65-7.67 8.42-14.38 5.41-6.23-2.8-12.39-5.76-18.44-8.92-3.11-1.63-5.33-1.62-6.82 1.74 2.25 4.05 4.83 7.9 6.61 12.08 6.06 14.22.14 24.89-15.16 26.58-4.86.54-10.15-.41-14.89-1.84-6.72-2.02-8.9-7.57-6.08-13.97 2.88-6.53 5.96-12.99 9.27-19.32 1.63-3.11.87-4.97-1.39-6.31-5.83 2.84-11.13 6.24-16.93 8.06-9.69 3.04-17-.76-20.64-10.12-2.93-7.54-3.01-15.29.68-22.65 3.08-6.13 7.61-7.54 13.89-4.64 6.34 2.92 12.69 5.85 18.9 9.06 3.08 1.59 5.01 1.05 6.1-1.15-2.82-6.61-5.86-12.51-7.89-18.74-3.25-10 2.86-16.18 9.45-18.72 8.57-3.31 17.26-4.01 25.31 1.94 4.13 3.05 4.68 6.95 2.75 11.35-2.87 6.54-5.73 13.1-8.93 19.47-1.59 3.15-1.7 5.33 1.76 6.73zm-5.79 9.88c.11-3.58-2.84-6.8-6.36-6.95-3.62-.15-7.16 3.2-7.15 6.77 0 3.45 3.23 6.66 6.73 6.71 3.6.05 6.67-2.9 6.79-6.54z"/></g></svg>