<svg viewBox="0 0 236.98 210.64" xmlns="http://www.w3.org/2000/svg"><path d="m236.48 140.52c-.04-.1-.08-.19-.13-.28-.54-1.41-1.4-2.66-2.49-3.66-.04-.04-.09-.08-.14-.12-.09-.08-.17-.15-.26-.23-.33-.27-.68-.52-1.05-.74-.04-.02-.07-.04-.11-.07-.1-.06-.21-.12-.31-.18-1.3-.71-2.78-1.12-4.36-1.16-.3-.02-.6-.03-.91-.03-12.48 0-24.97 0-37.45-.01-.55 0-1.11-.03-1.66.01-1.23.11-1.74-.32-1.73-1.66.06-6.46.03-12.91.02-19.37-.04-16.17.19-32.35-.2-48.51-.44-17.84-7.5-33.01-20.18-45.5-9.21-9.06-20.24-14.94-32.89-17.54-14.86-3.05-29.22-1.35-42.93 5.3-12.73 6.17-22.51 15.52-29.42 27.8-5.85 10.39-8.45 21.66-8.43 33.59.04 21.22-.03 42.43.02 63.65 0 1.63-.38 2.21-1.85 2.28h-2.8c-3.93-.01-7.86 0-11.79 0h-13.43c-3.03-.01-6.06-.04-9.08-.09-.83-.01-1.62.02-2.39.09h-.96c-5.28 0-9.57 4.28-9.57 9.57h0c0 5.28 4.28 9.57 9.57 9.57h.36c.17.01.33.02.5.03.97.03 1.94 0 3.15 0v2.38c0 14.51-.02 29.02 0 43.53 0 1.47 0 2.99.36 4.39 1.14 4.47 4.7 7.04 9.77 7.06 11.74.05 23.49.03 35.23.03h82.27c24.04 0 48.08.02 72.13 0 5.69 0 9.34-2.46 10.49-7.11.36-1.46.35-3.05.35-4.57.02-14.45 0-28.9 0-43.35 0-.67 0-1.33 0-2.33 1.31.08 2.57.06 3.75-.08 1.49-.08 2.88-.5 4.11-1.17 2.12-1.08 3.82-2.91 4.95-5.84v-2.54-2.33c-.31-.48-.43-.63-.5-.79zm-107.86-120.05c18.28 2.6 38.21 21.32 38.03 46.37h-38.03zm1.59 65.68c11.62.05 23.24.06 34.86.03 1.21 0 1.75.25 1.75 1.62-.04 15-.03 30.01-.04 45.01 0 .3-.06.6-.11 1.12h-38.01c-.06-.5-.16-.91-.16-1.32-.01-14.88 0-29.76-.04-44.64 0-1.35.36-1.82 1.76-1.82zm-47.88-49.96c7.03-8.35 15.94-13.64 26.83-16v46.72h-38.12c.13-11.67 3.86-21.9 11.28-30.71zm-9.52 49.96c11.56.05 23.12.05 34.68 0 1.34 0 1.82.34 1.82 1.75-.05 14.82-.05 29.64-.02 44.46 0 1.3-.39 1.69-1.67 1.69-11.62-.04-23.24-.05-34.86.01-1.52 0-1.82-.54-1.8-1.94.06-7.38.03-14.76.03-22.14h-.02c0-7.32.04-14.64-.03-21.95-.01-1.48.44-1.89 1.88-1.88zm-20.94 103.36c0 1.66-.52 2.09-2.11 2.06-5.1-.09-10.21-.08-15.31-.01-1.36.02-1.82-.37-1.8-1.77.07-5.84.03-11.68.03-17.52h-.02c0-5.72.04-11.44-.03-17.15-.02-1.39.3-1.94 1.83-1.91 5.16.09 10.33.09 15.49 0 1.58-.03 1.95.53 1.95 2.01-.06 11.43-.08 22.87-.02 34.3zm36.26 2.06c-5.16-.11-10.33-.06-15.5-.02-1.1 0-1.68-.2-1.67-1.51.04-11.93.02-23.86.02-35.79 0-.24.06-.47.14-1h13.2 2.77c3.3.02 3.07-.58 3.06 3 0 11.07-.04 22.14.01 33.21 0 1.57-.35 2.15-2.04 2.11zm38.67-.02c-5.28-.06-10.56-.04-15.85 0-1.1 0-1.67-.19-1.67-1.5.04-11.92.01-23.83.01-35.75 0-.24.06-.48.11-.9h19.07v21.54c0 4.98-.05 9.95 0 14.93.01 1.29-.39 1.69-1.68 1.68zm38.14 0c-5.1-.08-10.21-.07-15.31.01-1.46.02-2.04-.31-2.04-1.92.06-11.5.03-23-.01-34.5 0-1.34.23-1.98 1.8-1.95 5.71.09 11.42.04 17.41.04v8.95c0 9.16-.04 18.33.01 27.49 0 1.45-.38 1.9-1.86 1.88zm38.3 0c-5.1-.08-10.2-.06-15.31.01-1.46.02-2.06-.32-2.05-1.93.05-11.5.03-22.99-.02-34.49 0-1.35.26-1.98 1.81-1.95 5.71.09 11.42.03 17.41.03v8.95c0 9.16-.04 18.32.01 27.48 0 1.45-.39 1.91-1.87 1.89z" fill="#25bea5"/></svg>