<svg viewBox="0 0 137.13 273.99" xmlns="http://www.w3.org/2000/svg"><g fill="#25bea5"><path d="m75.28 0c1.94.17 3.88.37 5.82.52 14.55 1.1 28.71 4.1 42.48 8.92 8.67 3.03 13.28 9.19 13.44 18.39.2 10.9 0 21.8 0 32.7.04 55.3.1 110.6.1 165.9 0 2.68-.18 5.42-.79 8.02-1.38 5.89-5.59 9.15-11.23 10.42-6.75 1.52-13.57 2.84-20.41 3.89-13.33 2.05-26.76 2.83-40.25 2.59-10.96-.2-21.87-1-32.69-2.75-6.56-1.07-13.12-2.23-19.59-3.69-7.76-1.75-11.9-6.87-12.1-14.79-.15-5.77.08-11.55.09-17.33.04-31.49.09-62.99.07-94.48-.01-29.12-.12-58.24-.22-87.35-.01-3.85.26-7.64 1.82-11.21 2.43-5.57 7.01-8.63 12.55-10.52 12.05-4.14 24.41-6.93 37.08-8.33 2.82-.31 5.66-.43 8.5-.65.64-.05 1.27-.16 1.91-.25zm-8.32 122.66c-.33.62-.56 1.02-.76 1.42-3.93 7.86-7.89 15.71-11.76 23.6-1.66 3.38-3.38 6.75-4.65 10.28-3.19 8.81-2.03 16.77 5.27 23.25 5.31 4.72 11.34 7.17 18.49 5.23 5.68-1.54 10.24-4.83 13.56-9.71 2.37-3.47 3.25-7.38 2.91-11.55-.31-3.75-1.43-7.29-3.11-10.65-5.59-11.2-13.11-21.18-19.94-31.89zm21.83-72.77c.14-10.37-9.14-19.83-19.59-19.98-11.22-.16-20.69 8.81-20.84 19.72-.14 10.76 8.91 19.87 19.88 20.01 11.26.14 20.4-8.64 20.55-19.75z"/><path d="m66.34 273.99c-2.89-.65-5.86-1.09-8.66-2.01-7.3-2.4-13.14-6.87-17.71-13.03-.13-.18-.22-.38-.41-.71h57.52c-.97 1.42-1.72 2.68-2.63 3.82-5.46 6.89-12.64 10.66-21.32 11.69-.31.04-.62.16-.92.24z"/><path d="m79.16 157.55c-4.47 7.98-8.81 15.75-13.16 23.53-.09-.03-.17-.07-.26-.1 1.62-6.41 3.24-12.82 4.91-19.44-3.39-.52-6.66-1.02-10.13-1.54 2.64-6.89 5.22-13.62 7.8-20.35.08.02.17.03.25.05-.4 5.11-.79 10.22-1.2 15.43 3.91.81 7.72 1.6 11.78 2.44z"/><path d="m68.7 35.28c.12 1.17.26 2.33.36 3.5.51 5.83.99 11.66 1.51 17.49.09 1.05.04 2.08-1.02 2.48-.65.24-1.58.22-2.21-.07-1-.46-1.03-1.48-.92-2.54.65-6.52 1.25-13.04 1.86-19.55.04-.43.09-.87.14-1.3h.28z"/></g></svg>