<svg viewBox="0 0 204.4 235" xmlns="http://www.w3.org/2000/svg"><path d="m140.83 28.5v43.31h3.55c15.87.01 31.73.01 47.6.04 10.58.02 12.24 1.89 12.42 12.59.16 9.49-3.2 17.18-10.67 23.01-4.55 3.55-9.87 5.14-15.75 5.47v93.41c9.05.68 16.46 4.25 21.62 11.72 3.47 5.01 5.3 10.53 4.58 16.96h-203.61c-3.19-12.72 8.63-25.99 25.84-28.8v-92.39c-4.7-1.75-9.47-2.87-13.56-5.2-8.41-4.78-12.21-12.65-12.79-22.15-.1-1.65-.04-3.3-.02-4.96.09-6.53 3.22-9.68 9.83-9.69 16.53-.03 33.05 0 49.58.02h4.18v-43.36c-7.42-2.43-8.86-4.42-8.85-12.22 0-2.09 0-4.19.04-6.28.09-6.34 3.36-9.86 9.76-9.9 16.07-.12 32.16-.06 48.24-.07 8.81 0 17.63 0 26.44.04 7.11.04 10.28 3.17 10.45 10.22.05 1.98.06 3.97.06 5.95 0 7.79-1.42 9.75-8.94 12.28zm-83.33 84.33v80.57h29.31c-3.88-4.07-6.39-8.24-7.02-13.35-1.37-10.99 2.64-20.24 10.02-27.92 5.78-6.02 10.73-12.22 11.79-20.79.03-.28.33-.53.59-.93.37.32.82.53.96.87 2.94 6.94 3.89 13.89.44 21-1.33 2.74-2.66 5.59-3.24 8.54-1 5.03 2.67 10.18 7.44 11-.1-.69-.16-1.33-.28-1.97-1.3-6.84.19-13.1 4.07-18.8.47-.69 1.51-1.3 2.3-1.32.47-.01 1.33 1.16 1.41 1.86.78 7.39 4.62 13.16 9.42 18.49 3.08 3.41 3.99 7.42 3.31 11.97s-2.98 8.09-6.63 11.32h25.6v-80.54z" fill="#25bea5"/></svg>