<svg viewBox="0 0 237 202.15" xmlns="http://www.w3.org/2000/svg"><g fill="#25bea5"><path d="m118.29 202.15c-21.3-.52-41.85-4.05-60.6-14.34-7.31-4.01-14.4-9.15-20.16-15.15-15.17-15.8-14.66-36.43.76-52.09 15.35-15.6 34.93-22.54 55.97-25.95 27.68-4.48 54.84-2.41 80.37 9.67 9.04 4.28 17.8 10.34 24.84 17.43 15.08 15.19 14.8 35.16.27 50.92-15.09 16.37-34.97 23.33-56.21 26.94-8.32 1.41-16.82 1.75-25.23 2.57zm.14-34.64c8.07-3.04 15.98-4.78 22.5-8.77 9.36-5.72 9.14-16.06.66-22.99-11.3-9.23-34.85-9.18-46.21.1-8.26 6.74-8.71 16.82.26 22.49 6.65 4.21 14.78 6.06 22.79 9.18zm-64.55-40.36c.76.54 1.87 1.72 2.23 1.53 12.76-6.9 25.45-13.93 37.94-20.83-5.01-5.62-29.9 5.4-40.16 19.3zm85.93-18.02c15.38 4.16 28.14 8.88 38.16 18.96.84.85 3.28.11 6.61.11-10.81-13.13-23.82-18.82-37.93-22.45-1.39-.36-3.38 1.6-6.85 3.38zm-40.1 6.91c-4.64-5.87-26.7 3.99-33.85 16.33.55.43 1.39 1.39 1.65 1.25 10.61-5.71 21.16-11.52 32.2-17.58zm37.7-.54c9.87 6.08 19.35 12.02 28.99 17.71 1.22.72 3.24.1 6.5.1-9.05-11.76-19.92-16.67-31.8-19.72-1.3-.33-3.19 1.63-3.69 1.91zm-60.06 21.23c.25.71.5 1.42.75 2.12 9.01-4.86 18.02-9.72 27.04-14.59-4.15-5.94-19.92.78-27.79 12.46zm53.69-12.95c10.26 5.55 19.07 10.31 27.87 15.07-3.72-9.2-15.52-17.2-23.05-17.47-1.58-.06-3.22 1.56-4.82 2.4zm-69.24 50.66c10.11 9.75 21.96 13.68 26.53 8.8q-22.4-11.39-26.53-8.8zm84.7 8.13c7.64 5.22 19.2 1.07 28.37-9.23-9.84-.04-17.04 7.85-28.37 9.23zm19.35-14.83c-11.01-1.4-17.25 7.37-26.56 7.65 5.6 5.63 15.25 2.78 26.56-7.65zm-68.46 8.55q-21.36-9.41-24.72-7.01c10.82 9.11 18.96 11.58 24.72 7.01zm-15.36-13.37c12.09 9.69 18.81 11.17 24.53 4.74-9.11 1.87-14.43-8.01-24.53-4.74zm71.59.8c-.26-.86-.53-1.72-.79-2.59-7.11 2.58-14.22 5.17-21.56 7.84 5.45 5.06 13.31 3.04 22.35-5.25z"/><path d="m214.65 135.26c0-9.88-.34-18.56.07-27.21.75-15.79-5.98-27.98-17.59-37.84-17.36-14.74-38.13-21.31-60.27-23.75-29.87-3.29-58.76.11-85.27 15.47-19.25 11.16-31.29 26.67-29.32 50.43.59 7.15.09 14.39.09 23.79-12.44-10.85-20.65-21.95-22.13-37.09-1.55-15.84 4.91-28.73 15.8-39.58 17.01-16.95 38.26-25.82 61.29-30.65 39.32-8.25 77.8-5.9 114.79 10.83 13.32 6.02 25.2 14.19 34.24 25.9 17.52 22.68 12.98 51.99-11.71 69.7z"/><path d="m.31 73.65c-.67-13.86 3.77-23.65 10.73-32.43 10-12.62 22.99-21.45 37.82-27.16 52.49-20.22 104.17-19.45 154.28 7.69 12.67 6.86 23.3 16.51 29.28 29.98 2.68 6.04 3.69 12.83 4.58 19.55-26.38-36.77-64.78-47.45-106.34-50.79-25.31-2.03-50.26 1.17-74.29 9.87-22.47 8.14-42.26 19.97-56.06 43.29z"/><path d="m131.12 52.88v32.66h-25.16v-32.66z"/><path d="m169.46 93.75c-8.95-2.29-17.05-4.35-25.32-6.47v-33.27c7.91 2.33 15.24 4.34 22.44 6.73 1.23.41 2.72 2.39 2.75 3.67.23 9.6.13 19.21.13 29.34z"/><path d="m92.97 54.05v33.11c-8.13 2.11-16.18 4.2-25.37 6.59 0-10.21-.15-19.97.17-29.71.04-1.31 2.21-3.19 3.76-3.7 6.78-2.23 13.69-4.06 21.44-6.29z"/><path d="m29.89 117.56c-2.83-23.37 4.38-37.97 25.34-49.26 0 10.14.11 19.65-.13 29.15-.03 1.3-1.65 2.85-2.9 3.79-7.3 5.47-14.72 10.8-22.3 16.33z"/><path d="m206.92 117.25c-7.58-5.41-15.44-10.84-23.04-16.61-1.26-.95-1.97-3.33-2.01-5.07-.2-8.67-.09-17.35-.09-26.1 17.99 4.42 29.29 26.47 25.15 47.78z"/><path d="m118.72 163.65c-7.13-2.57-14.3-4.08-20.31-7.58-7.74-4.52-7.49-12.21-.51-17.72 10.19-8.04 31.35-7.94 41.44.18 6.6 5.31 6.96 12.88-.33 17.27-5.96 3.59-13.12 5.17-20.29 7.85z"/></g></svg>