<svg viewBox="0 0 236.04 226.58" xmlns="http://www.w3.org/2000/svg"><path d="m234.94 28.45c-.58-3.2-2.89-5.17-6.12-5.56-5.59-.67-11.19-1.12-16.81-1.23-12.3-.24-24.42.91-36.12 4.94-17.69 6.09-30.69 17.45-38.19 34.71-6.18 14.21-7.88 29.13-6.33 44.48.08.77-7.45 19.93-9.14 25.15-1.45-5.59-7.31-23.95-7.63-24.78-1.6-4.16-3.25-8.3-5.05-12.37-.22-.51-.41-.98-.33-1.59 1.65-11.91 1.15-23.74-1.53-35.45-2.94-12.88-8.52-24.41-17.82-33.96-9.53-9.79-21.23-15.76-34.33-19.15-15.63-4.04-31.51-4.28-47.48-2.82-3.64.33-5.95 2.4-6.52 5.95-2.65 16.36-2.08 32.52 3.29 48.31 4.53 13.31 12.37 24.24 24.06 32.24 10.92 7.48 23.22 11.03 36.21 12.54 10.34 1.2 20.69.95 31.03-.12.83-.09 1.16.16 1.43.87.85 2.16 1.78 4.28 2.64 6.44.92 2.31 3.82 10.41 4.09 11.23 1.43 4.32 2.73 8.67 3.87 13.08 3.19 12.35 5.3 24.88 6.05 37.63.05.79-.03 1.14-.95 1.24-6.57.66-12.71 2.72-18.31 6.19-2.16 1.34-4.14 2.28-6.68 1.37-.63-.23-1.38-.16-2.07-.21-9.82-.6-17.75 2.72-23.2 11.17-.37.57-.77.9-1.47 1.08-6.12 1.64-11.41 4.64-15.35 9.73-4.61 5.95-6.24 12.86-6.41 20.21-.03 1.31.26 2.65 1.11 3.75 1.59 2.08 3.6 3.06 6.3 3.06 38.44-.05 76.88-.03 115.33-.03 11.11 0 22.22.01 33.33 0 4.5 0 7.46-3.22 7.18-7.72-.06-.88-.11-1.76-.2-2.64-1.24-12.95-8.32-22.84-21.4-26.31-.84-.22-1.34-.65-1.78-1.37-1.84-2.96-4.23-5.41-7.18-7.27-6.26-3.96-13.07-4.42-20.14-3.09-.89.17-1.57.05-2.33-.45-6.18-4.1-12.93-6.66-20.31-7.48-.82-.09-.94-.32-.88-1.11 1.52-18.99 6.45-37.08 14.38-54.37.38-.83.81-1.03 1.67-.92 4.7.6 9.42 1.01 14.16 1.15 12.55.37 24.88-.79 36.71-5.32 14.12-5.41 24.73-14.79 31.76-28.2.34-.65 4.39-10.48 4.7-11.48 2.4-7.83 3.57-15.85 3.82-24.01.18-5.86.01-11.72-1.04-17.5zm-139.51 38.85c-3.14-4.95-6.33-9.51-9.76-13.9-6.76-8.63-14.27-16.51-23.16-22.99-3.97-2.89-8.85-1.78-10.75 2.46-1.36 3.02-.39 6.43 2.48 8.5 4.5 3.24 8.62 6.91 12.44 10.93 9.44 9.93 17.03 21.17 23.54 33.19.38.71.47.99-.53 1.06-10.09.63-20.15.55-30.12-1.43-10.37-2.05-19.91-5.9-27.89-13.04-7.46-6.67-12.12-15.05-14.85-24.57-3.05-10.63-3.63-21.48-2.6-32.45.06-.64.17-.99.94-1.03 13.95-.73 27.78-.15 41.21 4.18 14.45 4.65 25.76 13.17 32.77 26.91 3.21 6.3 5.17 13 6.29 19.96.1.66.01 1.34.01 2.23zm43.6 119.89c2.19 1.14 4.26 2.45 6.21 3.96 1.98 1.53 4.13 1.93 6.55 1.22 3.23-.94 6.51-1.5 9.89-.84 3.3.65 5.81 2.51 7.04 5.54 1.47 3.61 3.96 5.24 7.73 5.81 5.61.84 9.82 3.75 11.71 9.39.04.13.06.26.13.56-.77 0-1.42 0-2.07 0-43.44 0-86.89 0-130.33 0q-1.53 0-.93-1.47c2.05-5.07 6.12-7.48 11.23-8.51.82-.16 1.65-.26 2.46-.45 2.13-.49 3.78-1.7 4.58-3.72 2.59-6.54 7.63-8.16 13.97-7.14 1.32.21 2.63.55 3.93.9 2.31.63 4.43.27 6.32-1.2 5.24-4.07 11.04-6.86 17.72-7.4 8.18-.66 16.3-.61 23.86 3.35zm76.9-113.32c-6.23 12.95-16.66 20.83-30.34 24.65-10.57 2.95-21.36 3.24-32.21 2.37-2.74-.22-2.73-.28-1.25-2.59 5.73-8.92 12.19-17.2 20.52-23.88.83-.67 1.7-1.29 2.56-1.93 3.04-2.27 3.74-6.47 1.58-9.55-2.17-3.1-6.32-3.87-9.49-1.64-7.59 5.35-13.85 12.05-19.5 19.37-.62.81-1.24 1.62-1.87 2.43-.04.05-.16.05-.35.11.31-2.85.99-5.58 1.76-8.28 2.98-10.48 8.19-19.57 16.78-26.5 6.67-5.39 14.34-8.68 22.61-10.63 11.34-2.68 22.83-2.8 34.37-1.84.54.05 1.05-.05 1.1.84.73 12.84-.59 25.35-6.24 37.09z" fill="#25bea5"/></svg>