<svg viewBox="0 0 237.15 148.68" xmlns="http://www.w3.org/2000/svg"><g fill="#25bea5"><path d="m14.87 0h1.9c8.21 0 14.87 6.66 14.87 14.87v133.81h-31.64v-133.81c0-8.21 6.66-14.87 14.87-14.87z"/><path d="m36.54 56.77h9.87v22.47h-9.87z"/><path d="m36.54 113.43h9.87v22.47h-9.87z"/><path d="m88.02 56.77h9.87v22.47h-9.87z"/><path d="m88.02 113.43h9.87v22.47h-9.87z"/><path d="m139.26 56.77h9.87v22.47h-9.87z"/><path d="m139.26 113.43h9.87v22.47h-9.87z"/><path d="m190.78 56.77h9.87v22.47h-9.87z"/><path d="m190.78 113.43h9.87v22.47h-9.87z"/><path d="m118.58 0c-8.74 0-15.82 7.08-15.82 15.82v132.86h31.64v-132.86c0-8.74-7.09-15.82-15.82-15.82zm0 128.1c-1.89 0-3.43-1.54-3.43-3.43s1.54-3.43 3.43-3.43 3.43 1.54 3.43 3.43-1.54 3.43-3.43 3.43zm0-56.91c-1.89 0-3.43-1.54-3.43-3.43s1.54-3.43 3.43-3.43 3.43 1.54 3.43 3.43-1.54 3.43-3.43 3.43z"/><path d="m221.33 0c-8.73 0-15.81 7.08-15.81 15.82v132.86h31.64v-132.86c-.01-8.74-7.09-15.82-15.83-15.82zm0 64.33c1.89 0 3.43 1.54 3.43 3.43s-1.54 3.43-3.43 3.43-3.43-1.54-3.43-3.43 1.54-3.43 3.43-3.43zm0 63.77c-1.89 0-3.43-1.54-3.43-3.43s1.54-3.43 3.43-3.43 3.43 1.54 3.43 3.43-1.54 3.43-3.43 3.43z"/><path d="m169.96 30.24c-8.74 0-15.82 7.08-15.82 15.82v102.62h31.64v-102.62c0-8.74-7.08-15.82-15.82-15.82zm0 34.09c1.89 0 3.43 1.54 3.43 3.43s-1.54 3.43-3.43 3.43-3.43-1.54-3.43-3.43 1.54-3.43 3.43-3.43zm0 63.77c-1.89 0-3.43-1.54-3.43-3.43s1.54-3.43 3.43-3.43 3.43 1.54 3.43 3.43-1.54 3.43-3.43 3.43z"/><path d="m67.22 30.24c-8.74 0-15.82 7.08-15.82 15.82v102.62h31.64v-102.62c0-8.74-7.08-15.82-15.82-15.82zm0 34.09c1.89 0 3.43 1.54 3.43 3.43s-1.54 3.43-3.43 3.43-3.43-1.54-3.43-3.43 1.54-3.43 3.43-3.43zm0 63.77c-1.89 0-3.43-1.54-3.43-3.43s1.54-3.43 3.43-3.43 3.43 1.54 3.43 3.43-1.54 3.43-3.43 3.43z"/></g></svg>