<svg viewBox="0 0 237 173.46" xmlns="http://www.w3.org/2000/svg"><g fill="#25bea5"><path d="m50.69 158.64c-5.35 5.18-7.98 19.95-20.15 12.99-14.65-8.38 1.9-16.47 3.37-26.03-26.13-21.57-30.97-52.23-33.91-86.17 76.61 23.98 154.01 27.59 233.01 28.74.83 20.43-4.74 37.96-18.49 54.08 3.08 4.75 7.49 9.43 9.27 14.95.11.35.21.71.28 1.08 1.44 7.42-5.84 13.5-13.01 11.11-1.17-.39-2.26-.89-3.23-1.57-4.14-2.88-6.35-8.52-8.96-12.31-49.02 12.12-97.69 8.83-148.17 3.11z"/><path d="m202.69 63.38c1.79.14 3.32-1.27 3.32-3.06 0-12.07-.03-21.9.02-31.73.03-6.58-.74-12.94-9.04-13.41-8.04-.45-10.45 4.93-10.51 12.01 0 .82-.2 1.64-.44 2.56-.36 1.35-1.58 2.3-2.97 2.3h-8.34c-1.62 0-2.97-1.26-3.07-2.88-.98-16.25 7.95-27.76 22.44-29.05 15.6-1.38 27.04 9.71 27.58 27.01.35 11.15.36 22.3.55 33.46 0 .09.04.19.1.3.54.93 1.59 1.46 2.67 1.43 2.16-.05 4.69-.25 6.53.78 1.13.63 2.17 1.42 3.16 2.29 3.75 3.31 2.83 9.55-1.82 11.4-.51.2-1.02.33-1.54.35-14.24.61-28.56.74-42.79.04-59.91-2.96-119.56-7.91-177.44-25.18-1.83-.55-4.1-.67-5.37-1.85-.64-.59-1.27-1.21-1.87-1.85-4.05-4.23-1.66-11.44 4.16-12.1.55-.06 1.09-.05 1.61.04 30.85 5.84 61.31 14.11 92.34 18.44 32.78 4.58 66.02 5.93 100.75 8.69z"/></g></svg>