<svg viewBox="0 0 212 236.59" xmlns="http://www.w3.org/2000/svg"><g fill="#25bea5"><path d="m105.86 45.93c27.33.21 54.67.6 82 .54 12.18-.03 21.69 10.81 23.45 19.65.34 1.71.39 3.49.4 5.24.12 19.9.25 39.81.28 59.71.03 24.25-.03 48.49-.07 72.74 0 2.82-.16 5.63-.2 8.45-.14 11.88-10.88 21.79-19.6 23.35-1.49.27-3.02.4-4.54.42-19.39.2-38.78.46-58.18.53-22.03.07-44.05.02-66.08-.08-13.16-.06-26.32-.15-39.47-.5-9.74-.26-16.38-5.64-21.09-13.8-2.06-3.57-2.74-7.38-2.71-11.52.1-18.84-.03-37.68-.04-56.53-.01-24.02-.01-48.03.02-72.05 0-4.39.02-8.78.26-13.16.36-6.43 3.5-11.57 8.03-15.93 2.83-2.73 6.15-4.71 9.91-5.89.69-.22 1.44-.37 2.16-.38 15.61-.2 31.21-.44 46.82-.55 12.88-.09 25.77-.02 38.65-.02v-.23zm.13 176.25c26.64-.01 53.29-.05 79.93.04 2.78 0 5.06-.89 7.15-2.43 2.29-1.7 3.98-3.9 4.18-6.88.18-2.76.27-5.54.28-8.31.05-12.98.08-25.95.07-38.93-.03-32.19-.08-64.38-.12-96.56 0-.45.02-.97-.19-1.35-2.49-4.52-5.9-7.56-11.46-7.56-15.38 0-30.75-.14-46.13-.13-38.09.04-76.19.15-114.28.18-4.32 0-7.12 2.36-9.58 5.44-1.1 1.38-1.64 2.92-1.44 4.74.14 1.32.04 2.68.04 4.01-.04 40.13-.1 80.26-.11 120.39 0 6.09.15 12.19.37 18.28.16 4.49 5.8 9.01 9.71 9.02 27.2.06 54.39.03 81.59.03z"/><path d="m125.36 15.47v-15.47h11v15.77c1.65-.48 2.86-.85 4.09-1.17.98-.26 1.97-.51 2.97-.63.44-.05 1.13.1 1.34.41.19.28 0 .97-.22 1.35-1.89 3.17-3.78 6.34-5.76 9.45-2.35 3.7-4.79 7.34-7.2 11-.17.26-.4.49-.72.87-.51-.68-1.02-1.26-1.43-1.9-3.96-6.28-7.91-12.57-11.86-18.85-.17-.27-.32-.56-.45-.86-.44-1-.14-1.56.96-1.48 1.09.08 2.17.37 3.24.64 1.12.28 2.21.63 3.32.94.12.03.27-.02.72-.06z"/><path d="m81.09.46c.44.56.82.95 1.09 1.41 4.02 6.62 8.04 13.24 12.02 19.88.3.5.32 1.17.48 1.77-.66.07-1.36.32-1.97.18-1.96-.45-3.89-1.05-6.22-1.7v15.84c-3.58 0-6.8 0-10.02 0-.98 0-.79-.7-.8-1.27-.04-3.97-.06-7.93-.11-11.9-.01-.82-.14-1.63-.23-2.62-1.88.53-3.58 1.1-5.31 1.47-.88.19-1.84 0-2.76-.01.26-.8.38-1.68.81-2.37 3.92-6.47 7.88-12.91 11.85-19.34.28-.45.7-.8 1.17-1.33z"/><path d="m138.25 198.34c-.57.68-1.05 1.27-1.56 1.86-2.29 2.63-5.14 3.06-8.31 2.06-2.81-.89-4.72-3.3-4.78-6.46-.17-9.32-.22-18.65-.3-27.97-.03-3.32 0-6.65 0-9.97 0-.5 0-.99 0-1.6-.67.07-1.17.13-1.66.18-3.43.34-5.88-1.38-6.19-4.81-.35-3.95-.41-7.93-.42-11.89-.01-7.52.08-15.05.2-22.57.01-.69.38-1.5.83-2.04 2.34-2.79 5.57-4.07 8.98-4.83 2.51-.55 5.09-.93 7.66-1.02 6.64-.23 13.3-.27 19.84 1.24 3.16.73 6.07 2 8.03 4.76.35.49.61 1.16.61 1.75-.03 10.89-.09 21.79-.17 32.68 0 .69-.09 1.38-.18 2.07-.44 3.43-2.38 4.98-5.84 4.68-.45-.04-.91-.1-1.53-.17-.04.68-.12 1.3-.12 1.91-.08 12.42-.2 24.84-.19 37.26 0 2.5-1.12 4.24-2.89 5.65-3.59 2.85-8.52 2.06-11.19-1.68-.23-.33-.49-.63-.82-1.05z"/><path d="m58.55 156.22c-.74.1-1.24.18-1.74.22-3.28.28-5.77-1.73-5.83-5-.16-8.17-.19-16.34-.26-24.51-.03-3.28-.04-6.56.02-9.83.01-.63.27-1.35.64-1.87 2.21-3.06 5.59-4.15 9.02-4.95 2.41-.57 4.92-1.01 7.38-.98 5.85.06 11.71.25 17.54.75 4.12.35 7.89 1.93 10.69 5.21.38.44.67 1.12.68 1.69.07 10.3.09 20.59.1 30.89 0 1.15-.09 2.31-.24 3.45-.49 3.74-2.58 5.42-6.34 5.14-.45-.03-.9-.06-1.47-.1-.03.53-.07.98-.07 1.43-.1 11.17-.19 22.35-.3 33.52-.02 1.57-.13 3.14-.22 4.7-.27 4.51-3.98 7.42-8.46 6.69-2.26-.37-4.07-1.42-5.33-3.36-.2-.3-.43-.57-.71-.94-.31.41-.56.72-.79 1.05-1.72 2.54-4.18 3.57-7.16 3.3-3.26-.3-5.35-2.28-6.73-5.1-.21-.42-.16-.99-.16-1.49-.09-12.6-.17-25.21-.25-37.81 0-.64 0-1.28 0-2.09z"/><path d="m138.02 103.34c-6.38.68-13.93-5.68-13.84-13.87.09-7.58 6.23-14 13.84-14.11 7.07-.1 14.23 5.9 14.2 13.85-.03 8.34-5.59 13.99-14.21 14.13z"/><path d="m87.48 89.79c.68 6.71-6.03 13.86-13.95 13.68-7.96-.19-13.95-6.19-13.89-14.33.05-7.31 6.49-13.86 13.53-13.76 6.49.09 14.78 4.46 14.31 14.41z"/></g></svg>