<svg viewBox="0 0 229.28 235.66" xmlns="http://www.w3.org/2000/svg"><g fill="#25bea5"><path d="m156.41 126.02c-8.6 11.25-17.05 22.31-25.69 33.61-38.09-33-83.64-35.32-130.26-35.56-1.76-19.13 1.64-37.01 9.2-54.07 3.32-7.48 7.71-14.54 12.15-21.44.99-1.53 4.59-2.76 6.38-2.2 35.36 11 100.78 51.6 128.22 79.65z"/><path d="m30.7 37.12c26.59-27.37 57.79-39.39 94.69-36.77 4.21.3 6.32 1.8 7.29 6.54 5.09 24.84 12.47 48.86 28.5 69.25 1.39 1.77 2.58 3.99 4.41 5.06 8.79 5.14 6.87 11.68 3.14 18.86-2.75 5.29-5.08 10.81-8 17.07-38.6-34.36-81.55-60.56-130.03-80.01z"/><path d="m.74 133.39c44 .35 86.67 2.05 122.98 32.08-13.97 14.21-29.53 25.17-46.01 34.87-7.07 4.16-14.71 7.38-21.79 11.53-4.82 2.83-8.34 2.28-12.56-1.31-23.58-20.06-37.89-45.16-42.62-77.17z"/><path d="m163.89 130.96c15.47 18.16 30.48 35.77 45.46 53.35-14.36 20.75-31.99 35.27-55.71 44.26 1.28-23.18-3.72-43.59-17.1-61.64 8.85-11.64 17.53-23.06 27.35-35.96z"/><path d="m214.69 175.64c-15.14-16.82-30-33.23-44.66-49.82-1.09-1.24-1.53-4.13-.88-5.67 3.77-8.9 7.97-17.63 12.13-26.66 14.52 7.57 29.6 6.89 45.7 1.67 5.57 29.08.81 55.51-12.29 80.47z"/><path d="m131.04 174.68c11.23 14.77 14.85 32.8 13.92 51.95-.1 2.1-2.82 5.41-4.85 5.88-28.11 6.54-54.88 2.79-79.27-10.51 23.07-15.55 46.31-31.22 70.21-47.33z"/><path d="m140.83 3.19c15.61 3.73 28.65 10.07 40.49 18.89 1.21.9 2.38 2.8 2.38 4.24.04 17.47-2.4 34.58-7.89 52.48-21.27-21.37-28.88-47.53-34.99-75.6z"/><path d="m193.72 32.65c15.18 14.67 25.22 32.15 31.04 52.16-12.59 7.02-26.93 6.73-40.03-.37 2.97-17.09 5.92-34.12 8.99-51.79z"/></g></svg>