<svg viewBox="0 0 179.21 236.71" xmlns="http://www.w3.org/2000/svg"><g fill="#25bea5"><path d="m130.54 185.2c7.42 15.1 14.65 29.82 22.09 44.94-2.43 1.29-4.75 2.52-7.56 4.01-3.05-6.12-6.15-12.01-8.9-18.05-1.26-2.77-2.71-4-5.98-3.97-17.61.17-35.23.06-52.85.06-1.01 0-2.02.18-2.47.22.41 3.96 1.48 7.81 1.03 11.47-.97 7.99-8.22 13.35-16.26 12.78-7.84-.56-14.11-7.21-14.26-15.15-.15-8 5.69-15.05 13.72-15.43 3.83-.18 5.44-1.63 6.82-4.81 2.19-5.06 4.8-9.94 7.22-14.89.13-.26.14-.57.28-1.2-1.01-.61-2.09-1.31-3.22-1.93-16.05-8.78-27.06-21.82-32.73-39.19-.97-2.97-2.22-4.31-5.29-3.81-.73.12-1.49 0-2.24.02-2.74.05-4.94-.91-4.85-3.93.09-3 2.35-3.84 5.07-3.72 1.31.06 2.62.01 4.27.01v-9.24h135.37v9.25c2.01 0 3.83-.48 5.16.12 1.63.73 2.85 2.36 4.25 3.6-1.34 1.29-2.89 3.85-3.99 3.67-6.19-1.01-7.87 2.41-9.69 7.42-5.67 15.62-16.26 27.25-30.71 35.41-1.29.73-2.6 1.42-4.29 2.35zm-57.38 21.13h58.17c-3.17-6.38-6.06-12.21-9-18.12-13.72 4.05-27.08 3.82-40.43.08-2.44 4.9-4.7 9.42-6.93 13.95-.59 1.2-1.08 2.44-1.81 4.09zm-4.72 14.97c.06-3.96-3.27-7.46-7.26-7.65-4.12-.2-7.77 3.28-7.85 7.49-.08 4.03 3.19 7.47 7.21 7.59 4.25.13 7.84-3.25 7.9-7.43z"/><path d="m90.95.58c-19.07 39.52-37.76 78.25-56.73 117.57-19.27-19.07-25.73-41.34-20.19-67.59-1.65-.86-3.32-1.72-4.99-2.58.04.4.07.81.11 1.21-1.92.43-3.96 1.48-5.74 1.15-3.51-.65-4.29-2.67-2.45-6.17 3.96-7.51 7.4-15.29 11.2-22.88.93-1.85 1.03-5.14 4.8-3.56 3.06 1.28 5.61 2.6 2.94 6.56 1.97.99 3.55 1.78 5.43 2.71 16.69-20.46 38.15-29.48 65.62-26.42zm-73.09 27.72c-2.54 5.27-4.95 10.27-7.46 15.47 1.85.88 3.29 1.57 4.76 2.27 2.54-5.23 4.96-10.22 7.53-15.51-1.59-.74-3.03-1.4-4.82-2.23z"/><path d="m104.79 44.24c7.52 3.21 11.35 11.01 9.07 19.81-1.1 4.25-3.18 8.3-5.14 12.28-1.7 3.46-3.94 6.65-5.81 10.04-3.73 6.79-4.11 13.86-1.49 21.12.49 1.36.86 2.76 1.38 4.44-8.73-4.98-12.89-14.29-10.34-24.18 1.17-4.53 3.41-8.84 5.57-13.04 1.69-3.29 4.12-6.19 6.02-9.39 4.14-6.98 4.16-9.08.75-21.08z"/><path d="m120.78 62.54c6.54 4.14 8.56 8.93 6.53 15.12-1.05 3.2-2.65 6.36-4.6 9.1-4.98 7.01-8.28 14.2-4.26 23.22-6.39-3.58-8.93-10.52-6.34-17.84 1.26-3.58 3.33-6.98 5.55-10.1 4.1-5.76 8.09-11.36 3.12-19.5z"/><path d="m84.34 98.61c-7.27-5.02-9.63-11.22-7.17-18.63 1.2-3.62 3.19-7.06 5.32-10.26 3.85-5.77 7.44-11.41 2.43-19.06 6.57 3.45 8.82 8.44 6.8 15.01-1.08 3.51-2.84 6.92-4.89 9.98-4.59 6.87-6.81 13.91-2.49 22.95z"/></g></svg>