<svg viewBox="0 0 275 142.38" xmlns="http://www.w3.org/2000/svg"><g fill="#25bea5"><path d="m89.94 70.85c0 19.62.03 39.24-.03 58.86-.03 9.67-2.53 12.2-11.93 12.48-23.32.71-23.5.56-23.51-23.1-.02-34.88-.02-69.76.02-104.64.01-12.37 2.02-14.36 14.09-14.41q21.37-.08 21.37 20.95v49.87z"/><path d="m219.51 71.8c0 19.34.05 38.69-.02 58.03-.04 9.74-2.46 12.14-11.97 12.38q-23.18.6-23.2-22.42c0-35.42-.04-70.84-.01-106.26 0-11.48 1.95-13.4 13.23-13.5q21.95-.2 21.98 21.91c.02 16.62 0 33.24 0 49.86z"/><path d="m50.4 71.75c0 13.61-.2 27.22.1 40.83.11 5.26-1.6 7.33-6.93 7.31-21.86-.09-24.67 2.14-24.13-22.59.45-20.68.06-41.37.11-62.06.03-10.19 2.81-12.87 13.17-13.01q17.69-.23 17.68 17.67z"/><path d="m223.91 70.9c0-13.92.18-27.84-.09-41.75-.1-4.93 1.57-6.89 6.48-6.91 22.41-.11 24.98-1.79 24.5 22.37-.41 20.73-.04 41.48-.13 62.21-.05 10.34-2.79 12.92-13.2 13.03q-17.55.18-17.55-17.02c0-10.64 0-21.28 0-31.93z"/><path d="m94.74 83.84v-25.8h84.66v25.8z"/><path d="m14.89 55.87v29.44c-5.16-1.14-12.94-1.28-13.44-3.26-1.72-6.79-1.96-14.47-.43-21.29.51-2.27 8.04-2.97 13.88-4.88z"/><path d="m259.23 85.51v-29.01c5.5 1.42 13.82 1.7 14.48 4.09 1.85 6.69 1.66 14.57-.19 21.3-.61 2.22-8.78 2.35-14.28 3.62z"/></g></svg>