<svg viewBox="0 0 232.96 237.7" xmlns="http://www.w3.org/2000/svg"><path d="m224.18 190.3c-8.4-5.27-18.04-9.17-27.65-11.78-28.36-7.73-57.48-9.28-86.75-8.79-5.56.09-11.13.01-17.34.01 0-2.94 0-5.25 0-7.56 0-30.14.14-60.27-.13-90.4-.05-5.35 1.51-7.72 6.68-9.46 23.16-7.78 46.17-16 69.15-24.27.19-.07.37-.15.54-.23 3.41-1.69 3.21-6.83-.31-8.28-.02 0-.04-.02-.06-.02-6.1-2.44-12.4-4.38-18.55-6.7-20.11-7.6-40.15-15.44-60.4-22.68-1.78-.64-5.88.9-7.14 3.87-.62 1.46-.74 8.91-.74 11.03 0 50.85.44 96.86.44 147.71v8.03c-11.42 1.67-22.14 2.28-32.3 4.97-13.28 3.51-26.88 7.22-38.95 13.51-14.26 7.44-14.11 20.22-.31 28.41 8.54 5.07 18.2 9.08 27.87 11.3 48.57 11.13 97.48 11.25 146.42 2.36 13.9-2.52 27.65-5.9 39.42-14.31 11.57-8.27 12.05-19.23.1-26.72zm-135.74 24.88c-.65 0-1.29 0-1.92-.03-.04 0-.08.02-.12.03-.04-.01-.08-.02-.12-.03-16.85-.49-30.17-6.67-30.17-14.23s14.48-14.26 32.33-14.26 32.33 6.38 32.33 14.26-14.48 14.26-32.33 14.26z" fill="#25bea5"/></svg>