<svg viewBox="0 0 275.5 196.26" xmlns="http://www.w3.org/2000/svg"><g fill="#25bea5"><path d="m137.79 185.1c24-.53 47.53-3.6 70.29-11.37 14.69-5.01 28.52-11.7 40.19-22.21 5.66-5.1 10.41-10.91 13.2-18.08 4.69-12.06 2.09-23.03-5.38-33.11-7.1-9.57-16.63-16.19-26.99-21.77-3.49-1.88-4.75-4.8-3.41-7.85 1.27-2.89 4.62-4.49 7.41-3.04 15.56 8.04 29.48 18.1 37.48 34.27 8.28 16.76 5.77 32.74-4.98 47.62-7.35 10.17-17.15 17.57-27.96 23.67-16.29 9.2-33.88 14.81-52.15 18.46-19.92 3.98-40.04 5.21-60.28 4.24-25.19-1.2-49.71-5.76-73.05-15.63-13.77-5.82-26.53-13.29-36.95-24.24-7.92-8.32-13.54-17.87-14.9-29.5-1.46-12.46 2.41-23.43 9.78-33.31 7.6-10.17 17.51-17.61 28.5-23.7 17.86-9.9 37.15-15.6 57.16-19.06 17.33-3 34.79-3.88 52.35-3.24 4.9.18 7.69 4.86 5.25 8.82-1.27 2.05-3.2 2.7-5.55 2.72-8.97.08-17.97-.13-26.91.46-25.48 1.69-50.15 6.89-73.12 18.55-10.74 5.45-20.56 12.18-27.99 21.88-11.45 14.93-10.81 31.76 1.61 45.97 9.57 10.94 21.69 18.14 34.84 23.78 17.09 7.34 34.99 11.6 53.44 13.54 9.35.98 18.75 1.43 28.13 2.11z"/><path d="m172.58 97.1c-.07.83-.1 1.4-.17 1.97-.39 3.06-2.95 5.29-5.96 5.19-2.95-.1-5.37-2.31-5.48-5.39-.16-4.63-.08-9.26-.1-13.89-.04-10.64-.12-21.28-.11-31.92 0-8.47-.04-16.94.24-25.4.41-12.02 7.92-21.93 19.35-26.03 10.69-3.84 23-.72 30.8 7.79 2.56 2.79 2.62 6.13.16 8.52-2.41 2.34-5.96 2.27-8.47-.5-6.02-6.62-15.91-7.66-22.89-2.73-4.8 3.39-7.39 8.09-7.49 13.99-.1 6.3-.07 12.6.02 18.9.01.75.54 1.88 1.15 2.19 10.72 5.42 21.49 10.73 32.25 16.06.31.15.65.24 1.31.49 0-4.61-.27-9.01.08-13.36.31-3.85.78-7.83 2.08-11.43 4.55-12.67 18.52-20.39 31.73-17.91 13.96 2.62 24.04 14.43 24.03 28.15 0 3.4-2.27 5.94-5.48 6.14-3.14.19-5.83-2.07-6.04-5.54-.28-4.66-1.55-8.84-4.88-12.2-4.91-4.95-10.85-6.65-17.51-4.63-6.73 2.04-10.81 6.75-12.11 13.72-.26 1.41-.31 2.88-.31 4.32-.02 17.88-.01 35.76-.01 53.63 0 4.56.03 9.11-.01 13.67-.04 3.97-2.3 6.53-5.7 6.56-3.49.03-6.23-2.67-5.74-6.64.63-5.11-1.34-7.62-5.98-9.66-9-3.95-17.67-8.64-26.49-13.01-.69-.34-1.4-.64-2.26-1.03zm-.13-34.91c0 7.23-.05 13.95.07 20.67.01.65.91 1.54 1.61 1.89 8.18 4.16 16.41 8.24 24.63 12.33 2.69 1.34 5.4 2.64 8.45 4.13 0-1.1 0-1.79 0-2.49 0-5.72-.07-11.43.04-17.14.03-1.62-.53-2.44-1.96-3.13-7.28-3.54-14.51-7.18-21.76-10.78-3.54-1.76-7.09-3.51-11.07-5.48z"/><path d="m137.5 173.76c-22.04-.59-43.63-3.31-64.43-10.85-11.73-4.25-22.75-9.81-31.56-18.93-6.83-7.07-10.85-15.34-9.77-25.47.76-7.2 4.2-13.17 9.02-18.39 7.37-7.99 16.57-13.26 26.45-17.41 4.26-1.79 8.66-3.27 13.07-4.67 2.85-.91 5.85.8 6.83 3.53 1.03 2.84-.3 6.01-3.1 7.27-.79.36-1.63.58-2.46.85-8.82 2.94-17.44 6.38-24.94 11.97-3.27 2.44-6.38 5.27-9 8.4-6.02 7.21-5.99 15.4-.3 22.89 5.13 6.75 12.1 11.13 19.58 14.77 14.42 7 29.82 10.54 45.63 12.5 15.29 1.89 30.62 2.07 45.94.48 18.91-1.96 37.3-5.92 54.18-15.15 5.43-2.97 10.42-6.54 14.42-11.35 7.19-8.64 6.74-18.49-1.13-26.54-.94-.96-1.84-2.1-2.32-3.33-.91-2.35.19-5.1 2.28-6.47 2.24-1.47 5.13-1.26 7.22.68 10.19 9.49 15.45 25.88 4.75 40.62-6.26 8.63-14.81 14.35-24.21 18.93-15.39 7.51-31.79 11.55-48.71 13.48-9.12 1.04-18.31 1.48-27.47 2.19z"/><path d="m122.11 123.58c.14-4.96 1.76-9.33 5.15-13.01 4.17-4.53 4.16-8.12-.04-12.69-6.85-7.47-6.78-18.95.18-26.19 2.58-2.68 6.03-2.99 8.49-.76 2.47 2.24 2.51 5.65.1 8.51-3.15 3.75-3.08 7.5.19 11.08 7.73 8.45 7.72 19.06-.03 27.47-3.2 3.47-3.29 7.33-.27 10.91 2.52 2.98 2.5 6.39-.04 8.67-2.53 2.27-5.94 1.87-8.61-.99-3.27-3.51-5.14-8.27-5.12-13.01z"/><path d="m106.71 69.46c3.34.05 5.13 1.14 6.13 3.29 1.04 2.23.59 4.28-.8 6.32-1.07 1.56-2.13 3.29-2.54 5.1-.63 2.77.96 4.93 2.81 6.92 6.64 7.11 7.07 17.68.96 25.18-1.05 1.29-2.49 2.5-4.01 3.12-2.43.99-5.05-.18-6.42-2.31-1.44-2.25-1.33-4.9.58-7.01 2.16-2.39 3.24-5.06 2.11-8.14-.55-1.5-1.65-2.86-2.74-4.08-6.82-7.66-6.69-19.27.5-26.33 1.11-1.09 2.72-1.66 3.42-2.07z"/></g></svg>