<svg viewBox="0 0 197.8 236.67" xmlns="http://www.w3.org/2000/svg"><g fill="#25bea5"><path d="m.02 78.74h1.34 194.29c.37 0 .75.03 1.11 0 .72-.07 1.11.17 1.01.96-.03.24 0 .49 0 .74-.02 40.14-.03 80.27-.08 120.41 0 6.47-.21 12.95-.25 19.42-.05 6.64-3.36 11.26-8.83 14.61-2.09 1.28-4.27 1.79-6.77 1.79-47.89-.07-95.79-.05-143.68-.09-7.51 0-15.01-.26-22.52-.24-5.38.01-9.12-2.68-12.36-6.62-2.54-3.09-2.79-6.74-2.85-10.39-.21-13.32-.37-26.64-.39-39.96-.05-33.04-.02-66.08-.02-99.13 0-.44 0-.89 0-1.51zm98.43 18.84c-30.29-.31-58.7 24.43-59.89 58.21-1.22 34.44 25.94 61.92 59.83 62.48 32.72.54 60.93-26.87 60.89-60.4-.03-31.82-25.83-60.48-60.82-60.29z"/><path d="m197.77 61.58c-.79 0-1.36 0-1.93 0-64.77 0-129.54 0-194.31.03-1.18 0-1.54-.29-1.53-1.5.09-13.7.1-27.39.19-41.09.01-2.1.18-4.22.55-6.28.86-4.81 4-8 7.95-10.52 2.22-1.42 4.65-1.97 7.29-1.97 9.32 0 18.65-.11 27.97-.13 36.76-.05 73.52-.11 110.27-.12 8.87 0 17.74.21 26.61.22 6.62 0 11.38 3.02 14.75 8.55 1.25 2.04 1.74 4.29 1.82 6.61.19 5.52.32 11.05.35 16.57.06 9.36.02 18.73.02 28.09v1.53zm-153.63-40.37c0-.07 0-.15 0-.22-6.19 0-12.37.1-18.56-.05-2.33-.06-4.11.44-5.56 2.32-.57.73-.92 1.36-.9 2.29.05 2.72.02 5.44.01 8.16 0 3.71-.01 3.72 2.66 6.23.35.33.91.59 1.38.59 12.16 0 24.33 0 36.49-.06 2.26-.01 4.53-.19 6.78-.44 2.11-.24 2.97-1.1 3.02-3.22.09-4.16.05-8.32-.05-12.47-.02-.64-.51-1.37-.98-1.87-1.07-1.16-2.57-1.24-4.02-1.24-6.76-.03-13.52-.01-20.28-.01zm134.22 9.31c.62-6.14-5.72-11.61-11.53-11.49-6.54.13-11.76 5.32-11.72 11.88.04 6.43 5.36 11.53 11.92 11.52 5.46 0 11.79-4.49 11.33-11.91zm-55.33.15c-.32 7.64 6.32 11.79 11.66 11.77 6.18-.03 11.7-5.37 11.69-11.4-.01-6.52-5.3-11.93-11.67-11.98-5.72-.04-11.88 4.39-11.68 11.62z"/><path d="m98.9 208.73c-4.01-.39-8.16-.24-12-1.27-17.3-4.64-29.29-15.37-35.78-32.16-8.52-22.07.17-49.88 24.31-62.51 9.57-5.01 19.65-6.66 30.31-5.27 21.97 2.88 40.18 20.16 43.59 43.25 3.22 21.82-8.89 44.11-28.98 53.24-4.44 2.02-8.94 3.91-13.88 4.23-2.5.16-5.03.03-7.54.03-.01.15-.02.31-.03.46zm19.41-63.06c.25.32.45.52.58.76 1.34 2.34 3.24 4.16 5.43 5.67 4.69 3.22 9.84 3.66 15.26 2.38 1.27-.3 1.67-1.08 1.44-2.28-.25-1.33-.48-2.68-.8-3.99-5.16-21.31-25.61-36.61-50.16-31.79-9.6 1.88-17.46 6.97-23.75 14.41-5.24 6.19-8.53 13.28-9.49 21.38-.21 1.76.14 2.28 1.93 2.43 2.25.19 4.53.2 6.79.28 2.34.08 4.47-.58 6.45-1.8 2.8-1.74 5.29-3.8 6.95-6.72.13-.23.35-.4.55-.64 5.2 5.94 11.5 9.56 19.45 9.37 7.78-.19 14.45-3.06 19.37-9.46z"/></g></svg>