<svg viewBox="0 0 237.11 195.99" xmlns="http://www.w3.org/2000/svg"><g fill="#25bea5"><path d="m84.26 111.06v20.99c0 19.67.01 39.34.01 59 0 3.27-1.28 4.7-4.52 4.85-2.69.12-5.4.12-8.1 0-3.25-.14-4.55-1.57-4.55-4.79-.01-12.8-.01-25.59-.01-38.39 0-.76 0-1.51 0-2.38h-49.81v23.58c0 5.62.06 11.24.02 16.86-.03 3.62-1.44 5.04-5.02 5.13-2.47.06-4.94.08-7.4 0-3.48-.12-4.85-1.57-4.86-5.05-.02-12.65-.01-25.3-.02-37.95 0-34.71 0-69.42 0-104.13 0-4.09.04-8.18 0-12.26-.03-2.9 1.06-5.23 3.3-7.04 10.3-8.31 20.59-16.62 30.89-24.94 1.2-.97 2.35-1.99 3.59-2.9 2.97-2.19 5.99-2.21 8.84.07 10.28 8.23 20.51 16.5 30.77 24.76.54.43 1.05.9 1.63 1.29 3.75 2.49 5.92 5.79 5.25 10.47-.2 1.42.43 2.24 1.5 3.04 11.1 8.3 22.16 16.65 33.27 24.94.43.32 1.25.39 1.81.25 5.42-1.36 10.83-2.75 16.22-4.25.7-.19 1.34-.94 1.81-1.58 8.35-11.33 16.67-22.67 24.97-34.03 1.68-2.3 3.78-3.62 6.67-3.18 2.4.36 4.04 1.83 4.95 4.04.96 2.34.45 4.47-1.03 6.49-8.23 11.22-16.42 22.47-24.67 33.66-.85 1.15-1.13 2.09-.76 3.54 2.15 8.31 4.15 16.65 6.26 25.19 3.35-1.4 6.67-2.57 9.8-4.13 5.83-2.9 10.95.8 11.95 6.1 2.51 13.33 5.4 26.59 8.03 39.9.34 1.74.05 3.6.05 5.41-.26.09-.51.17-.77.26-1.7-1.49-3.61-2.8-5.06-4.5-4.25-4.97-8.57-9.9-12.32-15.24-1.47-2.09-1.52-5.2-2.15-7.86-.48-2.06-.85-4.16-1.32-6.52-1.62.68-3 1.26-4.59 1.93-.33-.48-.73-1-1.06-1.57-9.08-15.4-22.18-26.08-39.06-31.62-7.14-2.34-13.11-6.07-18.89-10.52-5.03-3.88-10.16-7.65-15.49-11.65v23.21c4.18.4 8.3.74 12.41 1.21 10.15 1.17 19.76 4.12 28.86 8.78 12.48 6.39 21.3 16.29 28.2 28.32 5.71 9.95 12.44 19.24 20.68 27.34 11 10.8 24.04 17.44 39.39 19.25 3.97.47 7.99.47 12 .54 5.68.1 10.22 3.65 10.86 9.26.42 3.73.41 7.58-.03 11.3-.65 5.56-4.85 9.33-10.47 9.49-7.53.21-15.11.56-22.6-.02-12.88-1.01-24.55-5.7-34.99-13.35-13.56-9.94-23.06-23.33-31.55-37.51-4.1-6.85-8.58-13.3-14.9-18.32-8.39-6.66-17.87-10.93-28.33-13.07-3.12-.64-6.27-1.12-9.67-1.71zm-66.91-6.89h49.59v-19.08h-49.59zm.02 32.45h49.61v-18.69h-49.61z"/><path d="m110.62 47.18c0-8.22 6.65-15.09 14.95-14.93 8.54.17 14.73 6.23 14.99 14.95.24 8.25-6.78 15.07-15.13 15.06-8.13 0-14.82-6.83-14.81-15.09z"/><path d="m182 95.19c8.76 6.96 16.93 13.44 25.1 19.94 2.51 2 3.99 4.54 3.35 7.82-.63 3.21-2.67 5.28-5.84 6.18-2.51.72-4.71-.05-6.67-1.56-3.46-2.68-6.92-5.37-10.24-8.23-.74-.63-1.06-1.92-1.28-2.96-1.48-6.86-2.87-13.74-4.41-21.19z"/></g></svg>