<svg viewBox="0 0 237 213" xmlns="http://www.w3.org/2000/svg"><g fill="#25bea5"><path d="m237 148c-4.37 10.2-9.94 12.07-20.16 7.27-5.93-2.78-11.98-5.92-18.31-7.04-4.11-.73-9.39.92-13.14 3.18-18.37 11.06-36.35 11.12-54.58-.12-8.06-4.97-16.46-4.96-24.56.06-17.85 11.08-35.69 11.26-53.63.33-8.82-5.37-17.54-5.29-26.33.21-2.8 1.76-5.84 3.19-8.91 4.45-8.93 3.68-13.08 2.1-17.38-6.34 0-2.33 0-4.67 0-7 2.88-2.76 5.4-6.11 8.72-8.18 7.74-4.81 15.63-9.38 25.14-10.17 10.78-.9 20.97.63 30.12 6.55 10.02 6.48 19.54 6.36 29.83.14 16.17-9.78 32.97-9.72 49.16-.03 10.27 6.15 19.6 6.16 29.86-.03 16.01-9.66 32.48-9.33 48.79-.25 2.03 1.13 3.98 2.5 6.14 3.3 4.73 1.74 7.77 4.91 9.24 9.67z"/><path d="m0 196c2.95-2.72 5.77-5.62 8.91-8.1 2.06-1.63 4.57-2.7 6.91-3.96 16.07-8.69 32.32-8.95 47.98.44 10.45 6.26 19.87 6.34 30.33.11 16.22-9.65 33.01-9.55 49.23.17 10.07 6.04 19.39 6.07 29.47.01 16.59-9.96 33.5-9.6 50.08.33 5.12 3.07 11.76 4.32 14.09 11v7c-5.78 8.96-10.56 10.23-20.41 5.3-2.82-1.41-5.47-3.15-8.27-4.6-6.77-3.5-13.66-3.55-20.66-.59-7.87 3.34-15.77 6.59-23.66 9.88h-12c-7.72-3.21-15.49-6.32-23.16-9.67-6.77-2.96-13.42-3.07-20.22-.17-7.84 3.35-15.75 6.57-23.63 9.84h-12c-7.75-3.23-15.54-6.38-23.25-9.72-7.17-3.12-14.2-3.13-21.17.45-3.11 1.6-6.05 3.52-9.2 5.02-9.38 4.49-14.74 2.57-19.37-6.74 0-2 0-4 0-6z"/><path d="m176 0c7.49 2.06 14.32 5.15 19.22 11.59 7.7 10.14 8.16 24.12 1.01 34.55-7.23 10.56-20.09 15.22-32.52 11.77-12.23-3.39-21.01-14.7-21.48-27.67-.43-12.16 7.54-23.87 19.26-28.27 1.83-.69 3.68-1.32 5.52-1.98h9z"/><path d="m94.81 59.5c-13-14.55-26.19-27.61-46.73-29.56-8.44-.8-13.2-8.15-12.2-17.02.83-7.34 7.04-12.47 15.13-12.05 16.87.88 32.15 6.38 44.29 18.22 26.95 26.27 53.45 53 80.13 79.55.22.22.29.58.41.84-10.86 8.43-21.65 8.82-33.65 1.55-14.94-9.06-31.12-9.4-46.09-.55-12.08 7.14-22.91 7.82-34.28-.32-.8-.57-1.78-.9-2.67-1.36-.71-.37-1.41-.76-2.42-1.32 12.77-12.74 25.34-25.29 38.05-37.97z"/></g></svg>