<svg viewBox="0 0 202.12 235.55" xmlns="http://www.w3.org/2000/svg"><g fill="#25bea5"><path d="m0 215.92c2.5-4.09 5.74-5.32 10.54-3.76 4.64 1.5 9.57 2.1 14.92 3.22 2.2-11.22 4.57-21.68 6.05-32.26.27-1.96-2.59-5.1-4.77-6.54-13.75-9.09-22.76-21.24-23.7-37.99-.41-7.22.36-14.81 2.21-21.81 5.81-21.9 12.38-43.6 18.68-65.37.27-.92.77-1.77 1.42-3.22 21.07 4.83 42.05 9.65 63.78 14.63-1.46-7.67-2.78-14.62-4.19-22 16-5.78 31.84-11.51 47.67-17.22 7.66-2.76 15.34-5.45 22.97-8.3 3.16-1.18 5.01-.72 6.38 2.75 8.7 22 17.96 43.78 26.32 65.9 8.31 21.97 1.23 44.43-17.84 58.16-3.78 2.73-4.34 5.05-2.87 9.25 3.27 9.34 5.98 18.88 9.05 28.77 5.66-1.92 10.84-3.75 16.06-5.43 3.82-1.23 7.28-.81 8.83 3.49 1.53 4.24.13 7.46-4.22 9.03-15.13 5.45-30.26 10.89-45.43 16.25-3.81 1.34-6.76-.07-8.17-3.82-1.38-3.67-.3-6.83 3.4-8.42 5.63-2.41 11.39-4.49 17.45-6.85-3.56-11.43-7.03-22.58-10.74-34.49-32.35 4.06-46.49-15.92-55.68-42.67-1.65 11.75-2.88 23.59-5.04 35.25-4.42 23.84-19.44 37.47-43.57 39.91-2.79.28-5.05 2.41-5.55 5.17-1.8 9.97-3.99 19.88-6.16 30.43 5.16 1.35 10.21 2.29 14.95 4.06 2.7 1.01 6.64 3.17 6.89 5.2.16 1.29-.3 2.66-.96 4.06-1.48 3.1-4.91 4.8-8.28 4.12-.99-.2-1.81-.38-2.16-.46-13.23-3.18-26.52-6.15-39.69-9.56-2.58-.67-4.89-2.39-7.26-3.86l-1.3-5.59zm153.71-185.52c-17.4 6.26-34.2 12.22-50.87 18.49-1.23.46-2.55 3.44-2.23 4.9 4.1 19.02 8.32 38.03 12.86 56.95 2.49 10.39 8.7 18.23 18.4 22.92 12.18 5.89 23.79 4.2 33.88-4.4 11.37-9.69 16.57-22.55 11.73-36.92-7.02-20.83-15.68-41.1-23.77-61.94zm-120.09 33.46c-4.05 13.67-7.95 26.6-11.7 39.56-2.21 7.64-4.59 15.25-6.19 23.03-3.84 18.67 8.3 37.9 25.98 41.78 17.06 3.75 35.07-7.62 38.54-26.3 3.77-20.31 5.61-40.98 8.02-61.52.16-1.34-1.74-3.95-3.1-4.29-16.93-4.22-33.95-8.13-51.55-12.27z"/><path d="m89.9 28.3c-7.18-7.38-8.9-12.09-5.37-15.25 3.16-2.82 6.96-3.01 10.23-.17 3.66 3.19 2.32 7.24-4.86 15.42z"/><path d="m67.45 42.94c-2.98-6.77-2.95-10.37.22-11.6 2.83-1.1 5.44-.28 6.92 2.45 1.66 3.06-.26 5.45-7.14 9.15z"/><path d="m70.27 21.69c-8.84-9.25-10.92-15.12-6.5-19 3.95-3.47 8.68-3.66 12.71-.1 4.52 4 2.8 9.02-6.21 19.1z"/><path d="m116.57 67.56c2.41 1.8 5.09 3.33 7.15 5.47 2.18 2.26 3.6 5.24 5.65 7.65 4.35 5.16 9.67 7.2 16.46 5.08 7.59-2.36 15.63-3.97 21.51 3.1 6.29 7.56 5.13 16.42 1.58 24.82-4.36 10.32-14.86 16.76-25.01 15.98-10.61-.82-20.52-9.29-23.04-20.35-2.52-11.03-4.64-22.16-6.67-33.3-.43-2.36.28-4.92.46-7.39.64-.36 1.27-.71 1.91-1.07z"/><path d="m42.35 117.33c12.74 4.9 19.91-3.74 25.51-15.28.6-1.23 1.31-2.65 2.38-3.36 1.37-.9 3.48-1.95 4.67-1.46 1.19.48 2.45 2.87 2.3 4.27-1.56 14.39-2.67 28.89-5.39 43.07-2.12 11.05-14.36 18.06-26.22 16.88-11.62-1.16-21.95-12.17-23.02-24.54-1.11-12.87 4.96-19.55 19.77-19.59z"/></g></svg>