<svg viewBox="0 0 199.23 237.73" xmlns="http://www.w3.org/2000/svg"><g fill="#25bea5"><path d="m74.73 177.75c3.87 3.75 7.19 7.06 10.62 10.27 2.03 1.9 2.06 3.64.3 5.76-2.53 3.04-4.79 6.3-7.34 9.32-1.56 1.84-1.77 3.33-.6 5.59 4.09 7.88 7.91 15.91 11.81 23.89 2.05 4.18 1.54 5.09-2.92 5.09-27.32.01-54.65-.02-81.97.05-2.65 0-4.31-.6-4.43-3.55-.71-17.06.28-33.85 7.79-49.61 5.39-11.3 13.74-19.48 25.56-23.91 8.78-3.29 17.57-6.53 26.31-9.92 2.68-1.04 4.83-.81 7.2.92 5.19 3.79 10.58 7.28 15.87 10.92 3.72 2.56 3.83 3.43.75 6.51-2.79 2.78-5.66 5.49-8.95 8.68z"/><path d="m124.83 178.22c-3.52-3.31-6.44-5.95-9.24-8.72-2.92-2.88-2.8-4.14.45-6.36 5.71-3.91 11.37-7.9 17.22-11.58 1.33-.84 3.59-1.19 5.04-.67 9.99 3.56 19.97 7.2 29.78 11.22 15.07 6.18 22.9 18.53 27.34 33.48 3.67 12.36 4.13 25.05 3.67 37.83-.11 3.06-1.23 4.33-4.49 4.31-27.33-.1-54.66-.05-81.98-.07-4.3 0-4.94-1.02-3.07-4.8 3.89-7.85 7.73-15.73 11.79-23.5 1.19-2.27 1.37-3.87-.47-5.9-2.48-2.74-4.44-5.95-6.9-8.72-2.28-2.57-2.34-4.55.36-6.84 3.46-2.95 6.71-6.16 10.52-9.69z"/><path d="m166.45 49.58c-4.35 3.57-8.6 7.1-12.94 10.54-.26.2-1.13-.31-1.69-.55-20.71-8.79-42.25-12.8-64.71-10.47-13.42 1.39-26.53 4.41-38.91 9.96-2.57 1.15-4.28 1.03-6.23-.94-2.51-2.55-5.17-4.97-7.91-7.28-1.92-1.62-2.2-3.24-.45-4.99 5.13-5.13 7.2-11.62 8.61-18.5 1.06-5.16 3.48-6.92 9.15-7.38 9.64-.77 19.22-2 27.64-7.24 3.55-2.2 6.79-4.93 10.04-7.57 8.23-6.68 13.18-7.12 20.88 0 10.77 9.96 23.53 14.01 37.75 14.81 5.79.32 7.7 1.83 8.64 7.61 1.14 6.97 3.12 13.44 8.23 18.62.65.66.95 1.65 1.9 3.37z"/><path d="m99.43 143.54c-29.58-.24-52.85-25.17-50.75-54.43.08-1.07.69-2.44 1.51-2.99.5-.34 2.1.35 2.82 1 9.62 8.61 21.36 11.55 33.75 12.49 12.23.92 24.47 1.09 36.57-1.43 8.79-1.83 17.09-4.82 23.99-10.92.81-.72 2.17-1.18 3.22-1.1.47.04 1.11 1.71 1.16 2.67 1.61 29.27-22.96 54.95-52.28 54.72z"/><path d="m99.6 95.87c-10.48-.44-20.79-1.01-30.67-4.77-5.27-2.01-9.93-4.91-13.52-9.39-1.91-2.38-1.82-4.01 1.19-5.43 8.8-4.14 18.1-6.35 27.68-7.58 17.65-2.26 34.96-.86 51.83 4.92 2.79.95 5.42 2.34 8.12 3.56 2.15.97 2.18 2.28.78 4.06-3.8 4.83-8.83 7.84-14.49 9.87-2.66.95-5.39 1.95-8.16 2.31-7.56.99-15.17 1.64-22.76 2.43z"/><path d="m97.28 189.84c-3.54-3.31-6.82-6.48-10.21-9.53-2.1-1.89-2.24-3.53-.11-5.55 3.59-3.4 7.09-6.91 10.51-10.48 1.66-1.73 3.04-1.74 4.68-.07 3.54 3.63 7.16 7.18 10.72 10.79 1.77 1.8 1.87 3.62-.05 5.46-3.4 3.25-6.74 6.54-10.3 10 3.79 4.77 7.35 9.35 11.01 13.83 1.31 1.61 1.63 2.94.65 4.98-3.83 8.02-7.35 16.18-11.14 24.22-.61 1.3-2.03 2.22-3.07 3.31-.96-1.03-2.27-1.91-2.84-3.12-3.9-8.26-7.77-16.54-11.31-24.95-.6-1.42-.11-3.92.83-5.26 3.11-4.45 6.65-8.59 10.65-13.65z"/><path d="m151.64 65.38c-.02 6.17-1.53 7.14-6.14 5.27-17.03-6.9-34.84-8.84-53.02-7.86-13.63.73-26.95 3.11-39.45 8.92-1.86.86-3.29.69-3.74-1.33-.53-2.4-2.71-5.53 1.36-6.87 7.6-2.5 15.18-5.18 22.96-6.97 25.6-5.91 50.52-2.74 74.82 6.6 1.37.52 2.48 1.72 3.21 2.24z"/></g></svg>