<svg viewBox="0 0 235.92 229.13" xmlns="http://www.w3.org/2000/svg"><g fill="#25bea5"><path d="m16.03 214.73v-109.82c4.23-1.78 7.88-3.39 11.61-4.82.75-.29 1.95-.19 2.63.23 8.15 5.1 16.04 4.48 24.01-.97 5.61 3.9 12.03 6.29 18.56 3.32 5.03-2.29 8.92-2.37 13.99-.02 6.37 2.95 12.76.79 18.51-3.32 8.51 5.99 17.11 6 25.63.04 8 5.47 16.01 6.09 24.24.81.62-.4 1.94-.41 2.56 0 8.23 5.29 16.23 4.68 24.22-.81 7.92 5.43 16.03 6.2 24.35.77.57-.37 1.65-.34 2.33-.08 3.71 1.46 7.38 3.06 11.62 4.85v109.8c1.19.13 2.03.19 2.86.32 3.43.52 5.8 3.05 6.04 6.43.24 3.44-1.66 6.34-5.02 7.23-1.51.4-3.16.44-4.74.44-67.5.02-135 .02-202.5 0-1.58 0-3.23-.04-4.74-.44-3.37-.9-5.26-3.78-5.02-7.23.23-3.36 2.62-5.92 6.04-6.43.83-.12 1.67-.17 2.85-.29zm72.51-.06h59.22v-3.58c0-29.18 0-58.36 0-87.54 0-6.93-2.38-9.35-9.29-9.37-13.54-.03-27.09-.03-40.63 0-6.9.02-9.29 2.45-9.29 9.37v87.54 3.58zm-12.85-72.51c0-4.48.13-8.64-.04-12.78-.12-2.83-1.96-4.66-4.7-4.8-4.86-.24-9.73-.07-14.7-.07v17.64h19.45zm84.98-.03h19.39v-17.68c-4.96 0-9.72-.17-14.46.07-2.66.14-4.75 1.73-4.87 4.63-.19 4.25-.05 8.51-.05 12.98zm-85.02 8.33h-19.38v17.64c5.01 0 9.77.11 14.52-.04 2.82-.09 4.65-1.85 4.8-4.63.23-4.25.06-8.52.06-12.97zm104.48 0h-19.51c0 4.47-.14 8.64.05 12.8.12 2.58 1.64 4.57 4.33 4.69 4.99.21 10 .06 15.12.06v-17.55zm-151.52-8.34h19.24v-17.72c-4.87 0-9.52-.19-14.15.07-2.75.15-5.01 1.57-5.07 4.8-.08 4.17-.02 8.34-.02 12.85zm159.8-17.79v17.7h19.12c.1-.8.2-1.28.2-1.76.02-3.2.07-6.4 0-9.59-.1-4.31-1.72-6.12-5.97-6.3-4.29-.18-8.58-.04-13.36-.04zm-.06 43.69c5.19 0 10.11.35 14.93-.2 1.58-.18 3.92-2.53 4.13-4.12.58-4.3.2-8.74.2-13.29h-19.26v17.6zm-159.63-17.65c0 4.71-.27 9.23.16 13.69.13 1.37 2.11 3.55 3.38 3.65 5.17.42 10.39.17 15.56.17v-17.52h-19.1z"/><path d="m105.43 94.01c-9.76 7.91-15.88 7.92-25.6.12-10.05 7.78-16.3 7.77-25.5-.04-9.84 7.82-15.83 7.84-25.66-.07-.51.43-1.06.87-1.59 1.34-4.8 4.34-10.37 5.87-16.38 3.41-6.47-2.62-9.82-7.99-10.67-14.81-.17-1.35.44-2.9 1-4.23 10.77-25.32 21.61-50.62 32.37-75.95 1.1-2.6 2.75-3.78 5.61-3.78 52.71.04 105.41.04 158.12 0 2.8 0 4.59.97 5.72 3.63 10.57 24.87 21.26 49.7 31.81 74.58 2.97 7.01.49 14.41-5.98 18.93-5.85 4.08-13.42 3.53-19.06-1.39-.63-.55-1.25-1.13-1.85-1.67-10.72 7.8-16.86 7.78-25.64 0-10.15 7.84-16.16 7.86-25.71-.1-3.45 3.36-7.4 5.88-12.5 5.89-5.12 0-9.26-2.13-12.87-5.97-3.68 3.5-7.75 6.03-13 5.98-5.12-.05-9.14-2.44-12.63-5.86zm20.8-14.62v-71.14h-16.21v71.14zm25.45.04c-2.57-24.02-5.08-47.54-7.6-71.18h-8.63v71.19h16.24zm-50.75 0v-71.16h-8.7c-2.53 23.8-5.04 47.4-7.57 71.17h16.27zm-26.09-71.26c-5.11 23.89-10.15 47.45-15.23 71.18h16.35c2.54-23.84 5.06-47.44 7.59-71.18zm101.88 71.27c-5.15-24.07-10.2-47.63-15.24-71.2h-8.73c2.56 23.85 5.09 47.46 7.63 71.2zm24.93 0c-.62-2.02-1.06-3.54-1.54-5.04-6.71-20.93-13.47-41.85-20.07-62.81-.9-2.84-2.26-4.05-5.21-3.58-1.3.21-2.65.03-4.57.03 5.15 24.06 10.2 47.66 15.28 71.39h16.11zm-150.88.04c5.1-23.83 10.14-47.41 15.25-71.27h-8.55c-7.59 23.66-15.18 47.31-22.88 71.27zm137.54-71.22c-.05.39-.11.53-.08.64 7.3 22.93 14.59 45.86 21.98 68.76.26.8 1.43 1.83 2.21 1.86 4.52.18 9.04.09 14.07.09-.57-1.59-.91-2.72-1.38-3.81-8.82-20.68-17.66-41.35-26.5-62.02q-2.53-5.93-9.06-5.71c-.36.01-.71.11-1.25.2zm-139.93.04q-8.05-.67-10.82 5.88c-8.72 20.44-17.47 40.87-26.19 61.31-.5 1.18-.9 2.41-1.54 4.13 4.53 0 8.44-.15 12.34.05 2.5.13 3.61-.65 4.38-3.15 3.8-12.31 7.86-24.54 11.8-36.81 3.34-10.38 6.64-20.78 10.03-31.41zm62.63 79.32c2.33 3.94 5.42 4.66 8.89 4.07 2.25-.39 4.35-1.32 5.01-4.07zm-76.65.03c2.18 3.45 4.87 4.53 8.26 4.11 2.58-.32 4.8-1.22 5.68-4.11zm-25.37-.04c1.6 3.24 4.04 4.21 7.02 4.21 2.99 0 5.37-1.06 7.1-4.4-3.84 0-7.23-.01-10.62 0-1.05 0-2.1.1-3.5.18zm178.65 0c2.77 3.75 5.11 4.96 8.84 4.02 1.91-.48 3.56-2.01 5.33-3.06-.2-.32-.4-.64-.61-.95h-13.57zm39.57.14h-13.77c3.85 5.6 10.16 5.58 13.77 0zm-127.71 0h-13.87c4 5.63 10.13 5.6 13.87 0zm37.09-.16c2 3.56 4.74 4.44 8.01 4.2 2.69-.19 4.73-1.33 6.13-4.2h-14.13zm-62.54.07h-14.16c1.88 3.06 4.15 4.24 7.19 4.17 2.98-.06 5.37-1.04 6.97-4.17zm88.25.03c1.73 3.32 4.29 4.21 7.38 4.13 2.85-.07 5.09-1.12 6.47-4.13z"/><path d="m141.62 155.49c.14 2.5-1.1 3.85-3.6 4.09-12.22 1.16-24.44 2.3-36.65 3.49-2.59.25-4.02-.97-4.32-3.41-.44-3.53-.73-7.08-.98-10.63-.18-2.51 1.47-3.81 3.61-3.7 4.38.23 6.92-2.41 9.53-5.23 2.17-2.34 4.64-4.41 6.72-6.82 2.2-2.56 4.01-2.28 5.99.13.86 1.04 1.93 1.89 2.83 2.9 3.31 3.71 6.55 7.25 12.44 5.76.86-.22 3.11 1.88 3.41 3.2.74 3.32.74 6.81 1.03 10.23zm-22.44-18.42c-2.59 2.22-5.16 4.42-8.21 7.03 5.03-.45 9.36-.83 14.6-1.3-2.73-2.45-4.77-4.28-6.39-5.73z"/></g></svg>