<svg viewBox="0 0 225 235.85" xmlns="http://www.w3.org/2000/svg"><path d="m106.86 177.08c5.75-6.06 11.62-10.24 20.48-8.59 5.17.96 10.48-.62 15.23-3.23 5.96-3.28 6.34-9.79.81-13.74-1.02-.73-2.12-1.35-3.17-2.03q-8.51-5.49-4.43-15.55 10.45 4.84 10.45-7.13c0-5.03-.13-10.06.18-15.07.24-3.92 2.27-6.86 6.62-6.66 4.23.19 5.96 2.97 6.2 7.07.25 4.45-2.04 10.44 1.04 12.93 2.93 2.35 7.59-2.24 11.6-3.42 3.31-.97 6.05-.44 7.59 2.9 1.64 3.57-.41 5.68-3.28 7.29-.87.49-1.83.82-2.75 1.22-15.15 6.65-16.59 9.53-14.41 26.35.52 3.97 3.35 4.71 5.97 5.84 16.69 7.24 36-.13 43.92-16.67 7.86-16.43 1.09-35.91-15.34-44.34-2.96-1.52-6.09-2.14-7.44-6.48-9.14-29.36-29.52-37.28-56.23-22.28-5.78-12.09-4.99-14.2 6.93-18.47 23.3-8.33 48.74 3.79 58.9 28.39 1.8 4.37 4.13 7.47 8.17 10.08 16.69 10.78 24.24 30.23 19.88 49.88-4.12 18.55-20.52 33.35-40 36.23-6.07.9-11.99 2.32-17.84-1.41-3.67-2.34-5.88-1.16-5.69 3.75.3 7.53-1.88 15.88.72 22.4 2.87 7.2 12.88 5.73 19.59 8.44 15.93 6.44 27.23 12.67 33.5 20.31-9.34.13-17.86 1.17-26.66-2.91-31.71-14.69-65.44-16.43-99.61-13.45-19.38 1.69-37.99 6.43-55.55 15.28-6.64 3.35-14.22 1.14-22.11 1.15 1.2-3.45 3.77-4.63 5.82-6.09 10.72-7.7 22.7-12.9 35.3-16.52 4.23-1.21 5.58-3.14 5.42-7.36-.29-7.78-.18-15.58-.04-23.37.06-3.14-.67-4.93-4.11-5.93-43.1-12.53-58.77-38.07-50.31-82.03 4.15-21.55 10.85-42.28 21.28-61.68 3.7-6.88 8.01-13.37 13.44-19.03 17.12-17.85 37.14-17.61 53.32 1.24 16.13 18.79 23.62 41.78 29.63 65.23 4.11 16.04 7.99 32.11 4.83 49.04-4.73 25.33-22.59 43.29-48.33 46.92-5.88.83-7.58 3.11-7.21 8.65.42 6.26.21 12.56.07 18.84-.08 3.79 1.53 4.78 5.08 4.17 21.69-3.73 43.48-4.02 65.29-1.28 4.66.58 7.1-.46 6.7-5.79-.47-6.24 1.77-13.94-1.15-18.42-3.56-5.46-10.83 1.01-16.74.41-7.45-.75-14.94-.52-21.55-5.09zm-51.68-89.38c0-8.2.09-14.67-.03-21.13-.09-4.64.54-9.25 6.1-9.44 6.01-.2 6.99 4.58 6.99 9.5v20.9c4.5-4.11 7.35-6.84 10.33-9.43 3.04-2.63 6.45-3.41 9.24.01 2.55 3.13 1.18 6.13-1.67 8.51-4.82 4.02-9.69 8-14.51 12.03-1.9 1.58-4.14 2.91-4.12 5.9.05 6.63.01 13.26.01 21.46 8.62-6.93 15.84-12.68 22.99-18.51 3.32-2.71 6.76-3.98 9.75.02 2.78 3.73.37 6.58-2.52 8.99-5.6 4.66-10.81 9.98-16.95 13.76-10.73 6.61-14.28 15.44-12.58 27.72.75 5.41 2.07 5.91 6.86 4.86 23.66-5.2 37.68-22.3 36.16-47.34-1.85-30.48-10.84-59.09-26.82-85.29-2.76-4.52-6.26-8.5-10.44-11.81-8.35-6.63-16.35-6.66-24.66-.03-6 4.78-10.34 10.95-14.05 17.55-12.95 23.07-20.73 47.9-23.54 74.11-2.62 24.52 12.92 45.77 36.82 51.6 2.12.52 4.93 2.54 6.48-.91 2.72-6.08-.94-20.18-6.1-24.44-8.33-6.88-16.64-13.79-24.93-20.71-2.92-2.44-3.81-5.42-1.24-8.54 2.63-3.2 5.72-2.58 8.6-.22 6.22 5.09 12.35 10.3 18.64 15.31 1.37 1.09 2.38 3.43 5.17 2.23 0-4.22-.38-8.52.09-12.74.73-6.64-1.31-11.43-7.08-15.1-4.2-2.68-7.88-6.23-11.65-9.55-2.66-2.34-3.09-5.18-.62-7.94 2.38-2.67 5.21-2.89 8.02-.65 3.32 2.64 6.54 5.42 11.24 9.33z" fill="#25bea5"/></svg>