<svg xmlns="http://www.w3.org/2000/svg" viewBox="0 0 306.24 184.5"><defs><style>.cls-1{fill:#002f43;}</style></defs><g id="Layer_2" data-name="Layer 2"><g id="Layer_1-2" data-name="Layer 1"><path class="cls-1" d="M276.12,65.46V83.63H258.5V65.46Z"/><path class="cls-1" d="M258.47,30.29H276V47.91H258.47Z"/><path class="cls-1" d="M276.13,136.71V154.3H258.5V136.71Z"/><path class="cls-1" d="M258.47,101h17.59v17.63H258.47Z"/><path class="cls-1" d="M194.28,184.41c0-19.48,0-38.7.05-57.92a6.58,6.58,0,0,0-2.13-5.26c-8.76-8.41-17.39-17-26.13-25.41-4.32-4.18-8.78-8.21-13.32-12.45-.39.35-.89.79-1.36,1.25Q135.9,99.8,120.39,115c-.85.83-1.87,1.47-2.79,2.22a14.18,14.18,0,0,0-5.78,12.54c.5,17.09.18,34.21.18,51.32v3.43H0V.14C1,.1,1.91,0,2.88,0Q59.64,0,116.39.08a6.89,6.89,0,0,1,4.36,1.81C131.43,12.41,142,23.06,153,34.05c1.34-1.46,2.56-2.87,3.87-4.19Q170.9,15.75,185.05,1.72A5.68,5.68,0,0,1,188.59.07Q246.72,0,304.83,0c.4,0,.79.06,1.41.11v184.3h-112Zm94.61-17.84v-149a7.33,7.33,0,0,0-1.06-.19q-45.88,0-91.76,0a4.08,4.08,0,0,0-2.6,1.05C180.21,31.66,167,44.92,153.55,58.4c6.42,6.12,12.85,12.16,19.17,18.31,10.58,10.3,21.09,20.67,31.64,31,.92.9,2,1.61,3,2.46,3,2.58,5.2,5.1,5.07,9.77-.42,14.48-.15,29-.15,43.46v3.18h76.63Zm-271.6-.07H93.53v-92h18.59V97.3l40.36-39.16c-13.26-13.28-26.39-26.48-39.63-39.58a5.84,5.84,0,0,0-3.75-1.15q-44.23-.09-88.48-.05H17.3V166.5Z"/><path class="cls-1" d="M128,156.52h17.6v18.24H128Z"/><path class="cls-1" d="M178.28,156.64v18.19H160.65V156.64Z"/><path class="cls-1" d="M128.06,125.16h17.59v17.63H128.06Z"/><path class="cls-1" d="M178.33,125.2v17.55H160.62V125.2Z"/><path class="cls-1" d="M223.52,65.34h17.53V83.58H223.52Z"/><path class="cls-1" d="M241,154.31H223.44V136.69H241Z"/><path class="cls-1" d="M223.52,101h17.53V118.6H223.52Z"/><path class="cls-1" d="M241.15,30.37V47.94H223.53V30.37Z"/><path class="cls-1" d="M45.32,83.68H27.78V65.44H45.32Z"/><path class="cls-1" d="M62.73,83.55V65.42H80.36V83.55Z"/><path class="cls-1" d="M27.75,154.26V136.65H45.38v17.61Z"/><path class="cls-1" d="M62.79,136.59H80.36v17.62H62.79Z"/><path class="cls-1" d="M27.7,118.58V101.06H45.33v17.52Z"/><path class="cls-1" d="M80.47,101.1v17.53H62.84V101.1Z"/><path class="cls-1" d="M27.81,30.34H45.4V48H27.81Z"/><path class="cls-1" d="M62.77,30.3H80.38V47.93H62.77Z"/></g></g></svg>