<svg viewBox="0 0 216.77 236.89" xmlns="http://www.w3.org/2000/svg"><path d="m172.88 236.89c-2.45-.4-4.93-.64-7.33-1.23-8.46-2.07-15.57-6.41-21.32-12.98-5.26-6.01-8.48-12.99-9.73-20.84-.89-5.61-.6-11.21.94-16.71.24-.87.04-1.26-.7-1.69-13.19-7.67-26.37-15.36-39.55-23.05-7.93-4.63-15.85-9.27-23.78-13.9-.17-.1-.35-.18-.29-.14-2.89 2.15-5.53 4.38-8.43 6.22-7.31 4.62-15.4 6.55-23.98 5.96-11.21-.78-20.68-5.38-28.22-13.77-5.62-6.26-9.08-13.58-10.12-21.9-1.49-11.88 1.47-22.61 9.14-31.89 6.61-7.99 15.1-12.91 25.32-14.49 12.03-1.86 22.91 1.12 32.44 8.76 1.09.88 2.14 1.83 3.11 2.84.57.6.98.68 1.72.25 8.35-4.77 16.73-9.49 25.09-14.23 12.37-7.01 24.74-14.03 37.13-21 .96-.54 1.17-1 .92-2.12-2.83-12.62-.51-24.24 7.26-34.6 6.05-8.06 14.15-13.15 23.99-15.38 2.1-.48 4.26-.67 6.4-1h5.08c.79.09 1.59.16 2.38.27 10.71 1.45 19.74 6.16 26.64 14.47 8.68 10.46 11.67 22.54 8.63 35.8-3.1 13.51-11.29 23.09-23.93 28.73-7.04 3.14-14.44 4.07-22.11 2.95-7.52-1.1-14.21-4.01-20.08-8.8-1.39-1.14-2.71-2.37-4.06-3.56-4.15 2.36-8.25 4.7-12.36 7.03-16.98 9.61-33.95 19.22-50.94 28.8-.76.43-.95.82-.73 1.7 1.71 6.74 1.7 13.5-.13 20.22-.26.97 0 1.37.83 1.85 11.78 6.84 23.54 13.72 35.3 20.6 9.24 5.4 18.48 10.78 27.7 16.2.63.37.98.2 1.44-.22 1.03-.96 2.07-1.9 3.18-2.77 9.57-7.52 20.42-10.34 32.4-8.47 8.15 1.27 15.3 4.84 21.35 10.5 7.87 7.37 12.29 16.46 13.12 27.17.68 8.71-1.23 16.92-5.83 24.41-5.61 9.12-13.51 15.36-23.84 18.32-2.98.85-6.13 1.16-9.2 1.71h-4.83z" fill="#25bea5"/></svg>