<svg viewBox="0 0 236.64 193.49" xmlns="http://www.w3.org/2000/svg"><path d="m0 64.81c.64-24.75 11.1-44.15 32.81-56.28 21.15-11.82 42.81-11.2 63.91.91 8.4 4.82 15.13 11.51 20.44 19.61.94 1.43 1.35 1.51 2.35.02 8.6-12.83 20.25-21.64 35.07-26.12 24.52-7.41 51.44.86 67.61 20.8 11.28 13.91 15.69 29.9 14.16 47.62-1.42 16.45-7.26 31.33-16.25 45.07-11.24 17.17-25.86 31.05-42.17 43.25-17.98 13.45-37.37 24.5-57.96 33.45-1.15.5-2.09.47-3.19 0-17.31-7.29-33.68-16.31-49.21-26.85-14.57-9.88-28.03-21.06-39.59-34.39-12.49-14.42-21.93-30.46-26-49.32-1.26-5.84-1.9-11.75-1.98-17.77z" fill="#25bea5"/></svg>