<svg viewBox="0 0 237.02 227.6" xmlns="http://www.w3.org/2000/svg"><g fill="#25bea5"><path d="m237.02 35.44c-1.87 3.21-3.71 6.43-5.6 9.63-2.65 4.5-6.7 5.58-11.25 2.96-14.53-8.37-29.04-16.74-43.56-25.14-4.32-2.5-5.47-6.65-3.05-10.99 1.49-2.67 3-5.33 4.6-7.94 2.51-4.1 6.45-5.1 10.79-2.62 13.95 8 27.92 15.98 41.76 24.17 2.41 1.43 4.22 3.86 6.3 5.83v4.09z"/><path d="m0 218.76c0-2.28 1.27-4.4 3.33-5.38.59-.28 1.19-.47 1.78-.48 18.59-.17 37.17-.12 55.76-.1 3.76 0 4.85 1.1 4.98 4.82.36 9.82.21 9.98-9.42 9.97-17-.01-34 .03-51-.13-.18 0-.36-.02-.54-.04-2.86-.38-4.89-3.01-4.89-5.9z"/><path d="m77.75 168.64c.79-2.08 1.31-4.31 2.4-6.21 12.8-22.32 25.69-44.58 38.54-66.86 11.89-20.61 23.79-41.22 35.65-61.85 3.43-5.96 6.97-7.03 12.88-3.62 17.37 10.02 34.73 20.04 52.1 30.07 4.95 2.86 6.04 6.7 3.17 11.68-19.46 33.78-38.95 67.54-58.43 101.3-5.38 9.32-10.6 18.75-16.27 27.89-1.56 2.51-4.15 4.97-6.84 6.1-16.08 6.75-32.31 13.13-48.51 19.59-4.35 1.74-5.9.68-6.57-4.05-2.4-16.82-4.85-33.64-7.27-50.46-.16-1.12-.25-2.25-.37-3.38-.16-.06-.31-.13-.47-.19zm91.93-115.09c-4.7 0-6.74 2.31-8.48 5.36-11.22 19.57-22.52 39.08-33.79 58.62-6.8 11.78-13.62 23.55-20.39 35.34-2.78 4.85-1.81 8.62 3.02 11.45 7.14 4.18 14.3 8.31 21.51 12.38 4.37 2.46 8.27 1.43 10.73-2.81 18.31-31.69 36.61-63.39 54.87-95.11 3.02-5.25 1.98-8.82-3.27-11.89-6.65-3.89-13.31-7.77-20.01-11.57-1.55-.88-3.29-1.39-4.17-1.76z"/></g></svg>