<svg viewBox="0 0 209.62 274" xmlns="http://www.w3.org/2000/svg"><g fill="#25bea5"><path d="m173.75 274h-137.86c-2.73-1.5-5.75-2.64-8.13-4.58-6.39-5.2-8.69-12.35-8.69-20.38 0-54.47.01-108.93.02-163.4 0-.75.07-1.5.1-2.2h171.4v11.46c0 28.2-.02 56.4-.02 84.6 0 23.26.04 46.52 0 69.78 0 8.02-2.4 15.17-8.85 20.31-2.34 1.87-5.3 2.97-7.98 4.42zm-34.41-101.12c0 20.82 0 41.63.02 62.45 0 1.26.12 2.61.59 3.75.91 2.18 3.49 3.36 5.66 2.87 2.95-.67 4.46-2.72 4.46-6.18 0-41.85 0-83.69-.01-125.54 0-.92-.14-1.86-.39-2.74-.65-2.24-2.91-3.79-5.2-3.68-2.46.11-4.55 1.86-4.98 4.27-.15.84-.15 1.71-.15 2.56v62.23zm-68.99.22s.02 0 .03 0c0-16.17.01-32.33 0-48.5 0-5.36 0-10.73-.19-16.09-.1-2.58-2.03-4.31-4.55-4.66-2.21-.31-4.66.93-5.41 3.02-.44 1.25-.6 2.65-.6 3.99-.03 41.49-.03 82.98-.01 124.48 0 .85.09 1.72.27 2.55.79 3.7 4.86 5.32 8.03 3.26 2.15-1.4 2.46-3.49 2.46-5.81-.02-20.75-.01-41.49-.01-62.24zm29.1-.22c0 20.6 0 41.2.01 61.8 0 1.07.06 2.15.26 3.2.47 2.39 2.65 4.15 5.04 4.21 2.37.06 4.62-1.64 5.13-4.05.26-1.25.35-2.55.35-3.83.02-41.13.02-82.26 0-123.39 0-.99-.1-2-.31-2.97-.5-2.28-2.04-3.57-4.26-3.97-2.09-.38-4.05.3-4.99 2.13-.8 1.56-1.18 3.51-1.19 5.29-.08 20.53-.05 41.06-.05 61.59z"/><path d="m104.64 45.49c30.05 0 60.11-.01 90.16 0 8.17 0 13.61 4.43 14.69 11.81.99 6.74-3.75 13.51-10.45 14.83-1.46.29-2.98.41-4.48.41-59.82.02-119.65 0-179.47.03-4.77 0-8.93-1.27-11.98-5.09-3.26-4.07-3.99-8.67-2.04-13.5s5.64-7.93 10.84-8.25c6.7-.41 13.44-.26 20.17-.26 24.19-.02 48.37 0 72.56 0v.04z"/><path d="m49.42 10.23v20.19c0 5.65 4.58 10.23 10.23 10.23 5.65 0 10.23-4.58 10.23-10.23v-4.15c0-5.65 4.58-10.23 10.23-10.23h49.52c5.65 0 10.23 4.58 10.23 10.23v4.15c0 5.65 4.58 10.23 10.23 10.23 5.65 0 10.23-4.58 10.23-10.23v-20.19c0-5.65-4.58-10.23-10.23-10.23h-90.44c-5.65 0-10.23 4.58-10.23 10.23z"/></g></svg>