<svg viewBox="0 0 237 226.94" xmlns="http://www.w3.org/2000/svg"><path d="m226.59 75c-5-1.71-10.26-1.96-15.43-2.69-15.95-2.27-31.88-4.72-47.89-6.55-1.53-.17-2.52-.74-3.21-2.29-1.78-3.98-3.82-7.84-5.74-11.76-6.72-13.75-13.48-27.48-20.11-41.27-3.11-6.45-7.94-10.22-15.17-10.44-7.43-.21-12.77 3.28-16.01 9.87-8.78 17.87-17.51 35.76-26.17 53.69-.7 1.46-1.64 2.02-3.05 2.16-10.28 1-20.45 2.72-30.68 4.12-9.83 1.34-19.65 2.7-29.45 4.24-6.37 1-10.49 4.9-12.6 10.92-2.55 7.28-.48 13.38 4.9 18.57 7.13 6.89 14.27 13.77 21.42 20.64 6.98 6.71 13.97 13.4 20.98 20.08 1.08 1.03 1.44 2.17 1.14 3.64-.65 3.27-1.24 6.55-1.82 9.84-2.17 12.27-4.36 24.54-6.49 36.82-.89 5.16-2.19 10.25-2.33 14.44.15 13.74 13.32 21.82 24.57 15.92 17.85-9.35 35.58-18.94 53.35-28.45.95-.51 1.74-.85 2.87-.24 10.81 5.84 21.65 11.64 32.5 17.42 7.35 3.92 14.68 7.89 22.12 11.66 7.61 3.85 17.42.48 21.75-7.18 2.42-4.29 2.38-8.77 1.55-13.41-3.23-18.13-6.33-36.28-9.75-54.37-.64-3.41.09-5.44 2.59-7.8 12.42-11.69 24.62-23.62 36.89-35.47 3.7-3.57 7.56-6.9 9.13-12.2 2.21-7.43-2.56-17.42-9.87-19.92z" fill="#25bea5"/></svg>