<svg viewBox="0 0 237 190.45" xmlns="http://www.w3.org/2000/svg"><g fill="#25bea5"><path d="m8.11 40.63h23.22c3.72 13.64 16.19 23.67 31.01 23.67s27.29-10.03 31.01-23.67h135.54c4.48 0 8.11-3.63 8.11-8.11s-3.63-8.11-8.11-8.11h-135.34c-3.47-14.02-16.12-24.41-31.21-24.41s-27.74 10.39-31.21 24.41h-23.02c-4.48 0-8.11 3.63-8.11 8.11s3.63 8.11 8.11 8.11zm54.23-27.96c8.02 0 14.91 4.85 17.89 11.78.2.46.37.94.53 1.41.05.13.1.26.15.4.15.48.27.98.39 1.48.03.14.08.28.11.42.1.5.17 1.01.24 1.53.02.15.05.29.07.44.07.66.1 1.34.1 2.02 0 .62-.04 1.23-.09 1.83 0 .08-.01.17-.02.25-.06.57-.15 1.13-.26 1.68-.02.11-.04.21-.06.32-.12.54-.25 1.08-.41 1.6-.03.1-.06.19-.09.29-.17.53-.36 1.06-.58 1.58-.02.05-.05.1-.07.15-2.98 6.93-9.87 11.79-17.9 11.79s-14.91-4.86-17.9-11.79c-.02-.05-.05-.1-.07-.15-.22-.51-.4-1.04-.58-1.58-.03-.1-.06-.19-.09-.29-.16-.52-.3-1.06-.41-1.6-.02-.11-.04-.21-.06-.32-.11-.55-.2-1.11-.26-1.68 0-.08-.01-.17-.02-.25-.06-.6-.09-1.21-.09-1.83 0-.68.04-1.36.1-2.02.02-.15.05-.29.07-.44.07-.52.14-1.03.24-1.53.03-.14.07-.27.11-.41.12-.5.24-1 .39-1.49.04-.13.1-.26.14-.38.16-.48.34-.96.54-1.43 2.99-6.93 9.87-11.78 17.89-11.78z"/><path d="m228.89 150.55h-111.34c-3.47-14.01-16.12-24.41-31.21-24.41s-27.74 10.39-31.21 24.41h-47.02c-4.48 0-8.11 3.63-8.11 8.11 0 4.48 3.63 8.11 8.11 8.11h47.22c3.72 13.64 16.19 23.67 31.01 23.67s27.29-10.03 31.01-23.67h111.53c4.48 0 8.11-3.63 8.11-8.11 0-4.48-3.63-8.11-8.11-8.11zm-142.54 27.23c-8.03 0-14.91-4.86-17.9-11.79-.02-.05-.05-.1-.07-.15-.22-.51-.4-1.04-.58-1.58-.03-.1-.06-.19-.09-.29-.16-.52-.3-1.06-.41-1.6-.02-.11-.04-.21-.06-.32-.11-.55-.2-1.11-.26-1.68 0-.08-.01-.17-.02-.25-.06-.6-.09-1.21-.09-1.83 0-.68.04-1.36.1-2.02.02-.15.05-.29.07-.44.07-.52.14-1.03.24-1.53.03-.14.07-.27.11-.41.12-.5.24-1 .39-1.49.04-.13.1-.25.14-.38.16-.48.34-.96.54-1.43 2.99-6.93 9.87-11.78 17.89-11.78s14.91 4.85 17.89 11.78c.2.46.37.94.53 1.42.05.13.1.26.15.4.15.48.27.98.39 1.48.03.14.08.28.11.42.1.5.17 1.01.24 1.53.02.15.05.29.07.44.07.66.1 1.34.1 2.02 0 .62-.04 1.23-.09 1.83 0 .08-.01.17-.02.25-.06.57-.15 1.13-.26 1.68-.02.11-.04.21-.06.32-.12.54-.25 1.08-.41 1.6-.03.1-.06.19-.09.29-.17.54-.36 1.06-.58 1.58-.02.05-.04.1-.06.14-2.98 6.93-9.87 11.79-17.9 11.79z"/><path d="m228.89 86.25h-23.02c-3.47-14.01-16.12-24.41-31.21-24.41s-27.74 10.39-31.21 24.41h-135.34c-4.48 0-8.11 3.63-8.11 8.11s3.63 8.11 8.11 8.11h135.54c3.72 13.64 16.19 23.67 31.01 23.67s27.29-10.03 31.01-23.67h23.21c4.48 0 8.11-3.63 8.11-8.11s-3.63-8.11-8.11-8.11zm-54.23 27.23c-8.03 0-14.92-4.86-17.9-11.79-.02-.05-.04-.1-.07-.15-.22-.51-.4-1.04-.58-1.58-.03-.1-.06-.19-.09-.29-.16-.52-.3-1.06-.41-1.6-.02-.11-.04-.21-.06-.32-.11-.55-.2-1.11-.26-1.68 0-.08-.01-.17-.02-.25-.06-.6-.09-1.21-.09-1.83 0-.68.04-1.36.1-2.02.02-.15.05-.29.07-.44.07-.52.14-1.03.24-1.53.03-.14.07-.27.11-.41.12-.5.24-1 .39-1.49.04-.13.1-.25.14-.38.16-.48.34-.96.54-1.43 2.99-6.93 9.87-11.78 17.89-11.78s14.91 4.85 17.89 11.78c.2.46.37.94.53 1.42.04.13.1.26.14.39.15.49.28.99.39 1.49.03.14.08.27.11.41.1.5.18 1.02.24 1.53.02.15.05.29.07.44.07.66.1 1.34.1 2.02 0 .62-.04 1.23-.09 1.83 0 .08-.01.17-.02.25-.06.57-.15 1.13-.26 1.68-.02.11-.04.21-.06.32-.12.54-.25 1.08-.41 1.6-.03.1-.06.19-.09.29-.17.54-.36 1.06-.58 1.58-.02.05-.04.09-.06.14-2.98 6.93-9.87 11.79-17.9 11.79z"/></g></svg>