<svg viewBox="0 0 236.32 199.59" xmlns="http://www.w3.org/2000/svg"><path d="m0 95.91c7.15-7.31 14.83-15.33 22.7-23.16 14.44-14.38 28.99-28.65 43.51-42.95 8.58-8.45 17.06-17 25.81-25.27 8.86-8.39 22.04-4.61 25.02 7.02.34 1.32.37 2.74.38 4.12.03 12.28.02 24.55.02 37.02 38.7 5.11 69.95 22.93 93.07 54.21 20.29 27.44 27.58 58.7 25.46 92.69-2.73-3.56-5.38-7.08-8.1-10.55-18.43-23.5-42.25-38.4-71.64-43.75-11.67-2.12-23.6-2.77-35.42-4.07-1-.11-2.02-.01-3.37-.01v22.4c0 4.64-.02 9.27 0 13.91.04 6.71-3.1 11.47-9.07 14.24-5.59 2.59-11.81 1.22-16.53-3.44-18.48-18.21-37.04-36.35-55.36-54.72-12.34-12.37-24.33-25.11-36.48-37.69z" fill="#25bea5"/></svg>