<svg viewBox="0 0 274.54 154.24" xmlns="http://www.w3.org/2000/svg"><g fill="#25bea5"><path d="m38.28 132.3h198.09v-32.21h-198.09z"/><path d="m0 79.6v65.5c0 5.81 3.31 9.12 9.12 9.14 4.53.01 9.06.01 13.59 0 5.41-.01 8.87-3.48 8.87-8.93-.01-17.64-.06-35.27-.06-52.91 0-26.15.04-52.3.05-78.45 0-6.9-3.97-12.11-10.72-13.4-3.89-.75-7.95-.81-11.85.4-5.25 1.62-8.94 6.48-8.96 12.18-.06 15.85.02 31.71.04 47.56v18.91c-.02 0-.05 0-.07 0z"/><path d="m109.82 93.39h126.84c-.04-3.97.38-7.94-.51-11.86-2.3-10.17-11.11-17.34-21.72-17.43-13.76-.12-27.51-.04-41.27-.04-17.03 0-34.07.04-51.1-.02-4.89-.02-8.76 1.63-11.16 6.01-.61 1.11-1.14 2.42-1.16 3.65-.14 6.36-.1 12.73-.12 19.09 0 .15.1.3.2.59z"/><path d="m274.54 103.06c0-13.65.01-27.29 0-40.94 0-6.51-2.9-10.98-8.63-13.25-1.08-.43-2.29-.66-3.45-.73-2.15-.12-4.31-.11-6.47-.06-7.31.15-12.93 5.86-12.95 13.18-.03 9.49 0 18.98 0 28.47v29.92 25.9c0 5.16 3.48 8.67 8.6 8.68 4.69.01 9.39 0 14.08-.01 5.49-.03 8.83-3.39 8.83-8.92.01-14.08 0-28.16 0-42.24z"/><path d="m38.2 93.36h64.05c.07-.08.21-.15.21-.23-.15-6.02.26-12.13-.62-18.05-1.37-9.16-9.89-16.05-19.15-16.22-8.19-.15-16.39-.16-24.59-.02-10.79.18-19.73 9.29-19.89 20.1-.07 4.74-.01 9.48-.01 14.41z"/></g></svg>