<svg viewBox="0 0 1080 185.02" xmlns="http://www.w3.org/2000/svg"><g fill="#ffcf31"><path d="m194.28 184.41c0-19.48-.03-38.7.05-57.92 0-2.17-.54-3.73-2.13-5.26-8.76-8.41-17.39-16.97-26.13-25.41-4.32-4.18-8.78-8.21-13.32-12.45-.39.35-.89.79-1.36 1.25-10.33 10.12-20.65 20.26-31 30.37-.85.83-1.87 1.47-2.79 2.22-3.99 3.23-5.95 6.91-5.78 12.54.5 17.09.18 34.21.18 51.32v3.43h-112v-184.36c.95-.04 1.91-.14 2.88-.14 37.84 0 75.68-.02 113.51.08 1.47 0 3.31.78 4.36 1.81 10.68 10.52 21.24 21.17 32.21 32.16 1.34-1.46 2.56-2.87 3.87-4.19 9.38-9.41 18.76-18.82 28.22-28.14.88-.87 2.34-1.65 3.54-1.65 38.75-.08 77.49-.07 116.24-.07.4 0 .79.06 1.41.11v184.3h-111.95zm94.61-17.84v-148.99c-.49-.09-.78-.19-1.06-.19-30.59-.01-61.18-.03-91.76.02-.88 0-1.98.44-2.6 1.05-13.26 13.2-26.47 26.46-39.92 39.94 6.42 6.12 12.85 12.16 19.17 18.31 10.58 10.3 21.09 20.67 31.64 30.99.92.9 2.01 1.61 2.98 2.46 2.96 2.58 5.2 5.1 5.07 9.77-.42 14.48-.15 28.97-.15 43.46v3.18h76.65zm-271.6-.07h76.24v-91.98h18.59v22.78c13.69-13.28 27.02-26.21 40.36-39.16-13.26-13.28-26.39-26.48-39.63-39.58-.83-.82-2.48-1.14-3.75-1.15-29.49-.06-58.99-.05-88.48-.05h-3.32v149.14z"/><path d="m369.25 130.26v54.19h-23.76v-115.36h25.91c11.17 27.35 22.42 54.88 33.93 83.03 2.28-5.39 4.35-10.15 6.32-14.96 5.27-12.87 10.48-25.76 15.74-38.64 3.8-9.32 7.62-18.63 11.51-27.91.3-.72 1.25-1.66 1.9-1.67 8.03-.12 16.07-.07 24.3-.07v115.58h-23.63v-53.51c-.28-.08-.56-.15-.84-.23-7.32 17.94-14.63 35.88-21.98 53.87h-26.53c-7.43-18.21-14.82-36.33-22.21-54.46-.22.05-.45.09-.67.14z"/><path d="m908.73 72.63h23.87v111.84h-23.47c-.2-.58-.47-1.35-.76-2.18-8.47 2.85-17.08 3.37-25.64 1.38-14.89-3.47-23.91-13.16-27.03-27.94-2.58-12.24-2.62-24.65 2.5-36.32 5.04-11.48 14.13-18.35 26.66-20.37 7.97-1.28 15.82-.87 23.87 1.89v-28.31zm-30.88 69.11c-.32 4.79.43 9.49 2.92 13.9 2.76 4.87 6.88 8.01 12.38 7.89 5.57-.13 9.9-3.22 12.34-8.43 4.39-9.36 4.46-18.84-.47-27.9-4.77-8.77-16.05-11.04-23.11-1.4-3.47 4.75-4.4 10.09-4.07 15.94z"/><path d="m645.41 146.91h26.12c-2.46 5.59-4.23 10.98-7.05 15.73-7.6 12.78-19.27 19.52-33.9 21.44-11.45 1.5-22.72.96-33.3-3.93-12.28-5.67-20.2-15.37-24.3-28.23-3.49-10.96-4.26-22.11-3.15-33.57.79-8.19 2.48-16.03 6.14-23.36 6.79-13.63 17.92-21.53 32.8-24.36 13.04-2.48 25.76-1.53 37.76 4.31 13.38 6.52 20.61 17.9 24.27 32.22h-25.77c-2.45-5.61-6.1-10.39-11.97-13.18-14.68-6.96-31.06-.8-36.51 14.61-4.92 13.9-4.73 27.99 2.17 41.51 4.25 8.31 11.47 12.08 20.33 12.9 9.17.85 16.75-2.65 22.53-9.78 1.52-1.87 2.54-4.15 3.84-6.31z"/><path d="m1049.24 132.87c.99-10.63-1.01-13.66-7.01-14.79-7.33-1.38-14.25-1.03-17.27 6.06h-21.91c.15-7.75 2.47-14.36 8.8-18.96 6.43-4.67 13.82-6.64 21.73-6.74 8.27-.1 16.56-.39 24.41 3 8.05 3.47 14.21 8.79 14.82 18.02.67 10.19.43 20.44.73 30.66.18 6.26 2.77 9.51 6.48 10.16v21.94c-8.15 0-16.18.28-24.18-.12-3.71-.19-5.68-3.29-6.62-7.24-3.76 4.29-7.94 7.54-13.41 8.69-10.22 2.15-20.14 2.18-28.97-4.49-4.08-3.09-6.24-7.56-7.27-12.33-1.42-6.56-1.33-13.17 1.39-19.58 3.65-8.58 10.42-12.87 19.31-13.57 8.38-.66 16.82-.51 25.23-.7 1.19-.03 2.39 0 3.75 0zm.25 17.36h-2.94c-4.11 0-8.25-.27-12.32.09-2.87.25-5.83.97-8.45 2.16-4.64 2.11-4.91 8.36-.64 11.15 5.29 3.46 11.13 2.93 16.91 1.82 4.66-.89 7.37-4.34 7.43-8.99.03-1.9 0-3.81 0-6.23z"/><path d="m849.31 161.01v21.23c-7.52 0-14.93.03-22.34-.03-1.16 0-2.63-.01-3.41-.67-2.02-1.71-3.74-3.78-5.22-5.32-3.22 2-6.69 5.18-10.77 6.5-11.46 3.71-22.8 3.44-32.53-4.79-3.32-2.8-5.19-6.87-6.09-11.3-1.72-8.49-1.14-16.57 3.88-23.92 3.97-5.81 9.85-8.66 16.56-9.14 8.89-.63 17.83-.51 26.74-.71.78-.02 1.56-.07 2.61-.12 0-2.68.25-5.2-.06-7.65-.5-4.01-3.69-7.16-8.15-7.34-3.8-.15-7.72.39-11.41 1.32-1.6.4-2.72 2.6-4.11 3.93-.51.49-1.17 1.18-1.76 1.19-6.93.08-13.85.05-20.77.05.1-7.17 2.09-13.38 7.4-18 4.57-3.98 10.13-6.29 16.07-7.09 8.52-1.15 17.1-1.46 25.59.49 6.44 1.48 12.21 4.16 16.48 9.42 3.25 4.01 4.64 8.73 4.71 13.78.13 8.85-.15 17.71.15 26.56.09 2.72 1.22 5.52 2.39 8.04.62 1.33 2.35 2.14 4.02 3.55zm-30.56-11.06c-6.94.31-13.61.34-20.21 1-3.84.38-7.11 4.27-7.08 7.25.03 2.95 3.1 6.73 6.82 7.14 4.47.5 9.09.57 13.54-.02 3.51-.46 6.34-2.89 6.87-6.74.36-2.63.07-5.35.07-8.63z"/><path d="m501.5 150.23c1.9 7.18 5 12.73 12.34 14.72 5.41 1.46 10.36.46 14.29-3.45 2.05-2.04 4.06-2.78 6.84-2.71 6.84.16 13.68.05 20.8.05-1.25 5.33-3.81 9.75-7.31 13.65-7.65 8.53-17.46 11.9-28.68 12.21-7.88.22-15.5-.58-22.61-4.17-11.63-5.87-17.52-15.73-19.67-28.27-1.53-8.93-1.3-17.71 1.13-26.48 3.73-13.42 12.11-22.36 25.58-25.8 11.42-2.92 22.79-2.62 33.74 2.68 9.84 4.77 15.33 12.92 18.47 22.93 2.25 7.15 1.97 14.58 1.89 21.97-.02 2.29-1.26 2.71-3.29 2.7-16.61-.06-33.22-.03-49.82-.03h-3.71zm.23-17.53h31.8c.08-6.69-6.47-14.2-13.02-15.07-9.51-1.26-16.4 4.22-18.78 15.07z"/><path d="m732.45 181.99v-7.77c-4.38 5.59-9.51 9.06-15.83 10.06-11.33 1.78-22.07-.64-28.81-11.94-3.93-6.58-5.38-13.81-5.47-21.27-.19-15.49-.06-30.98-.06-46.47v-3.51h24.01v3.09c0 14.79-.07 29.57.04 44.36.03 4.48.91 8.91 3.8 12.54 3.07 3.87 7.37 5.17 12.05 4.27 5.47-1.05 8.18-5.18 9.55-10.22.51-1.89.65-3.92.66-5.89.05-14.89.03-29.77.03-44.66v-3.49h24.38v80.92h-24.35z"/><path d="m943.92 184.49v-81.03h24.34c.08 1.18.16 2.35.26 3.69 3-1.5 5.84-3.18 8.87-4.39 8.81-3.53 17.07-2.49 24.55 3.52 1.25 1 2.22 1.99.53 3.64-5.25 5.13-10.39 10.37-15.52 15.52-5.03-2.51-8.61-.65-12.06 2.29-4.85 4.14-6.69 9.24-6.56 15.58.27 12.58.08 25.16.08 37.75v3.42h-24.49z"/><path d="m128.01 156.52h17.6v18.24h-17.6z"/><path d="m178.28 156.64v18.19h-17.63v-18.19z"/><path d="m128.06 125.16h17.59v17.63h-17.59z"/><path d="m178.33 125.2v17.55h-17.71v-17.55z"/><path d="m223.52 65.34h17.53v18.24h-17.53z"/><path d="m276.12 65.46v18.17h-17.62v-18.17z"/><path d="m258.47 30.29h17.57v17.62h-17.57z"/><path d="m241.01 154.31h-17.57v-17.62h17.57z"/><path d="m276.13 136.71v17.59h-17.63v-17.59z"/><path d="m223.52 100.97h17.53v17.63h-17.53z"/><path d="m258.47 100.95h17.59v17.63h-17.59z"/><path d="m241.15 30.37v17.57h-17.62v-17.57z"/><path d="m45.32 83.68h-17.54v-18.24h17.54z"/><path d="m62.73 83.55v-18.13h17.63v18.13z"/><path d="m27.75 154.26v-17.61h17.63v17.61z"/><path d="m62.79 136.59h17.57v17.62h-17.57z"/><path d="m27.7 118.58v-17.52h17.63v17.52z"/><path d="m80.47 101.1v17.53h-17.63v-17.53z"/><path d="m27.81 30.34h17.59v17.63h-17.59z"/><path d="m62.77 30.3h17.61v17.63h-17.61z"/></g></svg>