<svg viewBox="0 0 275 47.11" xmlns="http://www.w3.org/2000/svg"><g fill="#25bea5"><path d="m49.47 46.96c0-4.96 0-9.85.01-14.75 0-.55-.14-.95-.54-1.34-2.23-2.14-4.43-4.32-6.65-6.47-1.1-1.06-2.24-2.09-3.39-3.17-.1.09-.23.2-.35.32-2.63 2.58-5.26 5.16-7.89 7.73-.22.21-.48.37-.71.56-1.02.82-1.51 1.76-1.47 3.19.13 4.35.05 8.71.05 13.07v.87h-28.53v-46.93c.24-.02.49-.04.73-.04 9.64 0 19.27 0 28.91.02.38 0 .84.2 1.11.46 2.72 2.68 5.41 5.39 8.2 8.19.34-.37.65-.73.99-1.07 2.39-2.39 4.78-4.79 7.18-7.17.23-.22.6-.42.9-.42 9.87-.01 19.73-.01 29.6-.01.1 0 .2.02.36.03v46.93zm24.09-4.54v-37.94c-.12-.02-.2-.05-.27-.05-7.79 0-15.58 0-23.37 0-.22 0-.5.11-.66.27-3.38 3.36-6.74 6.74-10.17 10.17 1.63 1.56 3.27 3.1 4.88 4.66 2.69 2.62 5.37 5.26 8.06 7.89.23.23.51.41.76.63.75.66 1.33 1.3 1.29 2.49-.11 3.69-.04 7.38-.04 11.07v.81zm-69.16-.02h19.42v-23.43h4.73v5.8c3.48-3.38 6.88-6.67 10.28-9.97-3.38-3.38-6.72-6.74-10.09-10.08-.21-.21-.63-.29-.96-.29-7.51-.02-15.02-.01-22.53-.01h-.85v37.98z"/><path d="m94.02 33.17v13.8h-6.05v-29.38h6.6c2.85 6.96 5.71 13.97 8.64 21.14.58-1.37 1.11-2.59 1.61-3.81 1.34-3.28 2.67-6.56 4.01-9.84.97-2.37 1.94-4.74 2.93-7.11.08-.18.32-.42.48-.43 2.05-.03 4.09-.02 6.19-.02v29.43h-6.02v-13.63c-.07-.02-.14-.04-.21-.06-1.86 4.57-3.73 9.14-5.6 13.72h-6.76c-1.89-4.64-3.77-9.25-5.65-13.87-.06.01-.11.02-.17.04z"/><path d="m231.39 18.49h6.08v28.48h-5.98c-.05-.15-.12-.34-.19-.55-2.16.73-4.35.86-6.53.35-3.79-.88-6.09-3.35-6.88-7.11-.66-3.12-.67-6.28.64-9.25 1.28-2.92 3.6-4.67 6.79-5.19 2.03-.33 4.03-.22 6.08.48v-7.21zm-7.86 17.6c-.08 1.22.11 2.42.74 3.54.7 1.24 1.75 2.04 3.15 2.01 1.42-.03 2.52-.82 3.14-2.15 1.12-2.38 1.14-4.8-.12-7.1-1.21-2.23-4.09-2.81-5.88-.36-.88 1.21-1.12 2.57-1.04 4.06z"/><path d="m164.34 37.41h6.65c-.63 1.42-1.08 2.8-1.8 4.01-1.94 3.25-4.91 4.97-8.63 5.46-2.91.38-5.78.24-8.48-1-3.13-1.44-5.14-3.91-6.19-7.19-.89-2.79-1.08-5.63-.8-8.55.2-2.09.63-4.08 1.56-5.95 1.73-3.47 4.56-5.48 8.35-6.2 3.32-.63 6.56-.39 9.61 1.1 3.41 1.66 5.25 4.56 6.18 8.2h-6.56c-.62-1.43-1.55-2.65-3.05-3.36-3.74-1.77-7.91-.2-9.3 3.72-1.25 3.54-1.2 7.13.55 10.57 1.08 2.12 2.92 3.08 5.18 3.28 2.34.22 4.26-.67 5.74-2.49.39-.48.65-1.06.98-1.61z"/><path d="m267.17 33.83c.25-2.71-.26-3.48-1.79-3.77-1.87-.35-3.63-.26-4.4 1.54h-5.58c.04-1.97.63-3.66 2.24-4.83 1.64-1.19 3.52-1.69 5.53-1.72 2.11-.03 4.22-.1 6.21.76 2.05.88 3.62 2.24 3.77 4.59.17 2.6.11 5.2.19 7.81.05 1.59.71 2.42 1.65 2.59v5.59c-2.08 0-4.12.07-6.16-.03-.95-.05-1.45-.84-1.69-1.84-.96 1.09-2.02 1.92-3.41 2.21-2.6.55-5.13.56-7.38-1.14-1.04-.79-1.59-1.93-1.85-3.14-.36-1.67-.34-3.35.35-4.99.93-2.18 2.65-3.28 4.92-3.46 2.13-.17 4.28-.13 6.42-.18h.96zm.06 4.42h-.75c-1.05 0-2.1-.07-3.14.02-.73.06-1.49.25-2.15.55-1.18.54-1.25 2.13-.16 2.84 1.35.88 2.83.75 4.31.46 1.19-.23 1.88-1.11 1.89-2.29 0-.48 0-.97 0-1.59z"/><path d="m216.26 41v5.41c-1.92 0-3.8 0-5.69 0-.29 0-.67 0-.87-.17-.52-.43-.95-.96-1.33-1.36-.82.51-1.7 1.32-2.74 1.66-2.92.95-5.8.88-8.28-1.22-.84-.71-1.32-1.75-1.55-2.88-.44-2.16-.29-4.22.99-6.09 1.01-1.48 2.51-2.21 4.22-2.33 2.26-.16 4.54-.13 6.81-.18.2 0 .4-.02.66-.03 0-.68.06-1.32-.01-1.95-.13-1.02-.94-1.82-2.07-1.87-.97-.04-1.97.1-2.91.34-.41.1-.69.66-1.05 1-.13.13-.3.3-.45.3-1.76.02-3.53.01-5.29.01.03-1.82.53-3.41 1.88-4.58 1.16-1.01 2.58-1.6 4.09-1.81 2.17-.29 4.35-.37 6.52.12 1.64.38 3.11 1.06 4.2 2.4.83 1.02 1.18 2.22 1.2 3.51.03 2.25-.04 4.51.04 6.76.02.69.31 1.41.61 2.05.16.34.6.54 1.02.9zm-7.78-2.82c-1.77.08-3.47.09-5.15.25-.98.1-1.81 1.09-1.8 1.85 0 .75.79 1.71 1.74 1.82 1.14.13 2.31.14 3.45 0 .89-.12 1.62-.74 1.75-1.72.09-.67.02-1.36.02-2.2z"/><path d="m127.7 38.25c.49 1.83 1.27 3.24 3.14 3.75 1.38.37 2.64.12 3.64-.88.52-.52 1.03-.71 1.74-.69 1.74.04 3.48.01 5.3.01-.32 1.36-.97 2.48-1.86 3.48-1.95 2.17-4.45 3.03-7.3 3.11-2.01.06-3.95-.15-5.76-1.06-2.96-1.49-4.46-4-5.01-7.2-.39-2.27-.33-4.51.29-6.74.95-3.42 3.08-5.69 6.51-6.57 2.91-.74 5.8-.67 8.59.68 2.51 1.21 3.9 3.29 4.7 5.84.57 1.82.5 3.71.48 5.59 0 .58-.32.69-.84.69-4.23-.02-8.46 0-12.69 0h-.95zm.06-4.46h8.1c.02-1.7-1.65-3.62-3.32-3.84-2.42-.32-4.18 1.08-4.78 3.84z"/><path d="m186.5 46.34v-1.98c-1.11 1.42-2.42 2.31-4.03 2.56-2.88.45-5.62-.16-7.34-3.04-1-1.68-1.37-3.52-1.39-5.42-.05-3.94-.01-7.89-.01-11.83v-.89h6.11v.79c0 3.77-.02 7.53.01 11.3 0 1.14.23 2.27.97 3.19.78.98 1.88 1.32 3.07 1.09 1.39-.27 2.08-1.32 2.43-2.6.13-.48.17-1 .17-1.5.01-3.79 0-7.58 0-11.37v-.89h6.21v20.6h-6.2z"/><path d="m240.35 46.98v-20.64h6.2c.02.3.04.6.07.94.76-.38 1.49-.81 2.26-1.12 2.24-.9 4.35-.63 6.25.9.32.26.56.51.13.93-1.34 1.31-2.64 2.64-3.95 3.95-1.28-.64-2.19-.17-3.07.58-1.23 1.05-1.7 2.35-1.67 3.97.07 3.2.02 6.41.02 9.61v.87h-6.23z"/><path d="m32.59 39.85h4.48v4.64h-4.48z"/><path d="m45.4 39.89v4.63h-4.49v-4.63z"/><path d="m32.61 31.87h4.48v4.49h-4.48z"/><path d="m45.41 31.88v4.47h-4.51v-4.47z"/><path d="m56.91 16.64h4.46v4.64h-4.46z"/><path d="m70.31 16.67v4.63h-4.49v-4.63z"/><path d="m65.82 7.71h4.47v4.49h-4.47z"/><path d="m61.37 39.29h-4.47v-4.49h4.47z"/><path d="m70.31 34.81v4.48h-4.49v-4.48z"/><path d="m56.91 25.71h4.46v4.49h-4.46z"/><path d="m65.81 25.71h4.48v4.49h-4.48z"/><path d="m61.4 7.73v4.47h-4.49v-4.47z"/><path d="m11.54 21.31h-4.47v-4.64h4.47z"/><path d="m15.97 21.27v-4.62h4.49v4.62z"/><path d="m7.07 39.28v-4.48h4.49v4.48z"/><path d="m15.99 34.78h4.47v4.49h-4.47z"/><path d="m7.05 30.19v-4.46h4.49v4.46z"/><path d="m20.49 25.74v4.46h-4.49v-4.46z"/><path d="m7.08 7.73h4.48v4.49h-4.48z"/><path d="m15.98 7.72h4.48v4.49h-4.48z"/></g></svg>