<svg viewBox="0 0 257.97 214.18" xmlns="http://www.w3.org/2000/svg"><path d="m129.04 214.18c-1.71 0-3.42-.36-5.12-1.08-17.63-7.43-34.94-16.87-51.46-28.07-16.85-11.42-30.56-23.34-41.89-36.43-14.97-17.27-24.24-34.93-28.36-53.99-1.38-6.4-2.12-13.06-2.21-19.81v-.17s0-.17 0-.17c.75-28.9 13.84-51.27 37.88-64.7 23.87-13.33 49.34-13 73.68.97 6.54 3.76 12.4 8.59 17.49 14.44 9.15-10.42 20.58-17.74 34.1-21.83 28.18-8.52 59.59 1.14 78.16 24.03 12.63 15.57 18.13 33.99 16.33 54.74-1.49 17.19-7.52 33.96-17.91 49.85-10.82 16.53-25.51 31.62-44.91 46.14-18.27 13.67-38.65 25.43-60.58 34.97-1.72.75-3.46 1.12-5.2 1.12zm-111.04-139.44c.08 5.49.69 10.9 1.8 16.07 3.46 16.03 11.43 31.08 24.36 46.01 10.3 11.89 22.85 22.79 38.39 33.32 14.95 10.13 30.56 18.73 46.44 25.57 19.91-8.82 38.42-19.59 55.04-32.02 17.69-13.23 30.98-26.84 40.63-41.58 8.88-13.56 13.8-27.15 15.04-41.55 1.4-16.16-2.65-29.85-12.38-41.84-14.01-17.28-37.71-24.57-58.97-18.14-12.96 3.92-23 11.4-30.69 22.88-2.83 4.23-6.33 5.07-8.72 5.09-3.51-.02-6.42-1.76-8.67-5.19-4.78-7.3-10.73-13.02-17.68-17.01-18.82-10.8-37.64-11.09-55.94-.87-18.65 10.42-28.03 26.54-28.66 49.27z" fill="#25bea5"/></svg>