<svg viewBox="0 0 237.93 238" xmlns="http://www.w3.org/2000/svg"><g fill="#25bea5"><path d="m198.28 39.67c4.28 0 8.36-.04 12.44 0 12.15.15 22.89 8.26 26.1 19.95.74 2.7 1.05 5.6 1.05 8.4.07 37.6.06 75.21.03 112.81-.01 14.96-12.27 27.23-27.21 27.35-4.03.03-8.06 0-12.41 0v2.15c0 5.68-.05 11.37 0 17.05.04 4.32-1.71 7.57-5.57 9.5-3.89 1.95-7.52 1.19-10.92-1.38-11.55-8.7-23.11-17.4-34.73-26.02-1.01-.75-2.48-1.23-3.74-1.24-14.67-.09-29.34-.06-44.02-.06-3.87 0-6.98-1.48-8.81-4.97-1.86-3.54-1.71-7.15.39-10.56 1.81-2.94 4.63-4.26 8.02-4.27 12.16-.03 24.32-.02 36.48-.02 3.96 0 7.93.1 11.89-.04 3.2-.11 5.91.82 8.45 2.75 6.99 5.32 14.04 10.56 21.07 15.82.41.31.86.58 1.65 1.12 0-2.69-.04-5.08.01-7.47.04-1.57-.01-3.2.36-4.71 1.12-4.54 4.84-7.43 9.5-7.46 7.07-.05 14.14-.01 21.21-.02 5.64 0 8.57-2.9 8.57-8.5 0-18.37 0-36.74 0-55.11 0-18.88 0-37.77 0-56.65 0-5.79-2.81-8.61-8.62-8.62-3.44 0-6.87 0-10.31 0-.2 0-.39.04-.94.09v7.79c.01 24.45.08 48.91.02 73.36-.04 15.75-12.2 27.79-27.96 27.8-25.24.02-50.49-.01-75.73.05-1.2 0-2.61.45-3.57 1.17-11.73 8.69-23.39 17.47-35.08 26.2-3.75 2.79-7.81 3.03-11.46.76-3.1-1.93-4.7-4.78-4.75-8.4-.07-5.82-.02-11.63-.02-17.45 0-.71 0-1.42 0-2.33-4.21 0-8.22.02-12.23 0-12.37-.07-23.24-8.36-26.43-20.32-.64-2.4-.97-4.95-.98-7.43-.05-38.03-.03-76.1-.01-114.16 0-12.55 10.56-24.55 23.04-26.2 2.08-.27 4.21-.37 6.31-.38 19.76-.02 39.52-.02 59.28-.02 27.29 0 54.58-.02 81.87.01 13.28.02 24.32 8.74 27.04 21.74.84 4.01.53 8.27.7 12.42.07 1.76.01 3.53.01 5.5zm-138.78 128.71c.81-.54 1.3-.84 1.76-1.18 7.14-5.34 14.29-10.67 21.41-16.03 2.25-1.69 4.7-2.47 7.54-2.46 26.43.04 52.86.02 79.3.03 6.16 0 8.95-2.78 8.95-8.94 0-37.14 0-74.28 0-111.42 0-5.6-2.91-8.53-8.54-8.54-15.07 0-30.13 0-45.2 0-32.18 0-64.36 0-96.54 0-5.37 0-8.34 2.97-8.34 8.32v112.2c0 5.37 2.98 8.36 8.32 8.36h21.01c6.12 0 10.28 4.19 10.32 10.34.02 2.97 0 5.93 0 9.3z"/><path d="m99.19 49.56h49.15c6.07 0 10.61 4.27 10.59 9.92-.02 5.6-4.62 9.91-10.64 9.91-32.83 0-65.67 0-98.5 0-5.01 0-9.06-3.1-10.09-7.6-1.09-4.76 1.16-9.42 5.73-11.37 1.4-.6 3.06-.82 4.61-.83 16.38-.06 32.77-.04 49.15-.03z"/><path d="m99.21 89.24c16.38 0 32.76.11 49.14-.06 4.73-.05 10.4 3.17 10.55 10 .12 5.65-4.56 9.9-10.63 9.89-15.79-.02-31.58-.09-47.37-.09-17.11 0-34.22.09-51.33.07-7.6 0-12.43-7.65-9.06-14.35 1.85-3.69 5.01-5.47 9.15-5.47h49.56z"/></g></svg>