<svg viewBox="0 0 236.99 227.7" xmlns="http://www.w3.org/2000/svg"><path d="m176.28 227.7c-3.54 0-7.09-.79-10.37-2.45-5.55-2.81-11.08-5.77-16.43-8.63l-4.16-2.22c-10.65-5.68-19.1-10.2-26.87-14.39-3.51 1.88-6.99 3.75-10.47 5.61-11.81 6.33-24.01 12.88-36.1 19.22-7.59 3.98-16.45 3.76-23.7-.58-7.59-4.54-12.18-12.79-12.28-22.07v-.2s0-.2 0-.2c.12-3.44.83-7.05 1.52-10.54.26-1.33.53-2.68.77-4.04 1.59-9.21 3.23-18.41 4.86-27.62l1.14-6.41c.37-2.07.74-4.19 1.15-6.34-5.76-5.49-11.5-11-17.24-16.52-6.61-6.35-13.2-12.71-19.8-19.07-7.79-7.51-10.2-16.99-6.79-26.68 3.14-8.93 9.81-14.63 18.79-16.04 9.14-1.44 18.16-2.69 27.38-3.94 2.9-.4 5.79-.82 8.69-1.25 5.49-.81 11.14-1.63 16.84-2.27 7.47-15.45 15.15-31.21 22.85-46.87 4.64-9.45 12.89-14.5 23.18-14.19 6.86.2 16.22 2.92 21.92 14.75 4.57 9.5 9.29 19.14 13.85 28.46l4.7 9.6c.57 1.17 1.15 2.33 1.73 3.49.79 1.56 1.59 3.16 2.37 4.8 10.6 1.27 21.22 2.81 31.53 4.3 3.32.48 6.65.96 9.97 1.44 1.12.16 2.25.29 3.38.43 3.82.45 8.15.96 12.53 2.46 11.24 3.84 18.33 17.94 14.88 29.57-2.01 6.77-6.42 10.99-9.96 14.37l-.87.83c-2.72 2.63-5.43 5.25-8.14 7.88-8.34 8.08-16.95 16.42-25.57 24.54 2.17 11.52 4.23 23.22 6.22 34.54.88 5.03 1.77 10.05 2.67 15.08.82 4.59 1.46 11.5-2.46 18.44-4.55 8.05-13.1 12.71-21.71 12.71zm-57.72-46.76c2.16 0 3.97.65 5.33 1.38 8.63 4.66 17.87 9.62 29.97 16.06l4.19 2.24c5.26 2.81 10.7 5.72 16.07 8.44 2.6 1.32 6.45-.11 8.08-2.99.6-1.07 1.07-2.57.4-6.32-.9-5.04-1.79-10.08-2.67-15.12-2.02-11.49-4.11-23.37-6.31-35-1.15-6.11.51-11.18 5.09-15.49 8.67-8.16 17.38-16.6 25.81-24.77 2.72-2.63 5.44-5.27 8.16-7.9l.93-.9c2.77-2.65 4.5-4.38 5.1-6.42.72-2.43-1.45-6.57-3.35-7.22-2.55-.87-5.58-1.23-8.78-1.61-1.27-.15-2.54-.3-3.81-.48-3.34-.48-6.68-.96-10.02-1.44-11.14-1.61-22.65-3.28-33.96-4.58-4.69-.54-8.32-3.18-10.22-7.44-1.01-2.27-2.15-4.52-3.34-6.91-.61-1.22-1.23-2.44-1.82-3.66l-4.69-9.59c-4.58-9.35-9.31-19.02-13.91-28.57-1.76-3.65-3.56-4.41-6.08-4.48-2.69-.07-4.67.57-6.37 4.04-8.14 16.57-16.26 33.23-24.13 49.52-1.99 4.12-5.58 6.64-10.11 7.08-6.32.62-12.82 1.57-19.11 2.49-2.96.43-5.91.87-8.87 1.27-9.11 1.25-18.04 2.48-27.01 3.89-1.98.31-3.42 1.11-4.48 4.13-.9 2.57-.82 4.64 2.27 7.62 6.58 6.35 13.17 12.7 19.77 19.04 6.44 6.18 12.88 12.36 19.34 18.52 3.27 3.12 4.58 7.28 3.69 11.71-.59 2.96-1.13 5.97-1.64 8.88l-1.14 6.42c-1.63 9.18-3.26 18.36-4.85 27.54-.26 1.5-.55 2.99-.84 4.46-.56 2.81-1.08 5.47-1.18 7.43.08 2.87 1.33 5.22 3.44 6.48 1.07.64 3.26 1.5 5.96.08 12.01-6.29 24.18-12.82 35.94-19.13 4.42-2.37 8.83-4.74 13.25-7.1 2.17-1.16 4.16-1.59 5.91-1.59z" fill="#25bea5"/></svg>