<svg viewBox="0 0 237 235.63" xmlns="http://www.w3.org/2000/svg"><g fill="#25bea5"><path d="m118.29 63.31c16.83 9.04 33.82 18.42 50.28 27.51 10.27 5.67 20.84 11.5 31.36 17.25-.1 26.14-.1 52.59-.09 78.23v29.81c0 .56-.01 1.05-.03 1.48-.37.02-.78.03-1.24.03-6.24.01-12.47.02-18.76.02-3.88 0-7.78 0-11.72 0 0-4.63 0-9.27 0-13.9 0-14.39.01-29.28-.02-43.93-.04-19.29-12.08-31.3-31.4-31.33-7.21-.01-14.43-.02-21.65-.02-6.77 0-13.54 0-20.3.03-19.06.05-30.92 11.96-30.95 31.09-.03 16.51-.02 33.28-.02 49.5v8.31c-3.8.03-7.48.06-11.19.06-5.85 0-10.86-.07-15.43-.21-.07-12.11-.06-24.43-.04-36.35 0-5.16.01-10.32.01-15.48 0-5.32 0-10.64 0-15.96.01-13.56.03-27.52-.05-41.38 8.86-4.88 17.77-9.82 26.42-14.61 17.94-9.94 36.47-20.21 54.81-30.11m.3-18.52c-2.37 0-4.82.51-6.56 1.44-29.82 16.06-59.34 32.68-89.03 48.99-2.95 1.62-4.01 3.38-3.99 6.75.16 21.13.08 42.27.08 63.4 0 17.84-.08 35.68.04 53.51.06 9.31 4.72 15.8 13.3 16.16 6.69.28 13.38.36 20.12.36 9.59 0 19.28-.17 29.19-.17v-6.45c0-23.07-.02-46.15.01-69.22.01-9.26 3.84-13.09 13-13.12 6.75-.02 13.5-.03 20.26-.03 7.2 0 14.41 0 21.61.02 9.52.02 13.42 3.86 13.44 13.37.05 20.55.01 41.1.02 61.66v14.13h29.72c6.3 0 12.55 0 18.8-.02 13.87-.03 19.24-5.48 19.24-19.5.01-37.61-.07-75.23.1-112.84.02-4.19-1.1-6.48-4.91-8.56-29.75-16.2-59.27-32.83-89.13-48.81-1.41-.75-3.34-1.11-5.32-1.11z"/><path d="m168.91 31.88c0-8.68-.03-16.21 0-23.74.03-6.74 1.33-8.03 8.21-8.11 5.23-.06 10.46.09 15.69-.04 5.17-.12 7.34 2.26 7.29 7.39-.12 12.59.11 25.19-.12 37.79-.07 3.78 1.02 5.98 4.44 7.75 8.24 4.27 16.29 8.92 24.4 13.45 7.47 4.17 10.05 10.34 6.79 16.1-3.12 5.5-9.55 6.37-16.8 2.18-30.33-17.49-60.73-34.88-90.92-52.62-6.66-3.91-12.21-3.87-18.85.02-30.53 17.93-61.25 35.52-91.93 53.19-6.37 3.67-12.85 2.42-15.79-2.8-2.98-5.3-.81-11.57 5.3-15.24.17-.1.34-.18.51-.28 34.72-19.95 69.48-39.85 104.11-59.97 5.14-2.99 9.48-3.04 14.55.04 12.24 7.42 24.71 14.48 37.09 21.67 1.63.94 3.32 1.78 6.03 3.22z"/></g></svg>