<svg viewBox="0 0 274.77 105.89" xmlns="http://www.w3.org/2000/svg"><g fill="#25bea5"><path d="m88.38 10.8c.86-.24 1.46-.41 2.16-.61-.29-.71.66-2.38-1.52-2.3.35.32.67.61 1.05.95-.57.66-1.07 1.24-1.7 1.97z"/><path d="m220.83 63c12.15.41 21.5 10.28 21.06 22.22-.43 11.76-10.38 21.05-22.13 20.66-11.76-.39-21.09-10.31-20.74-22.06.35-11.71 10.3-21.21 21.81-20.82z"/><path d="m73.27 84.49c-.01 11.8-9.61 21.41-21.38 21.4-11.9 0-21.45-9.58-21.43-21.49.02-11.9 9.56-21.4 21.52-21.41 11.7-.01 21.3 9.68 21.29 21.49z"/><path d="m274.67 71.1c-.38-3.74-2.31-6.83-4-10.11-4.77-9.23-12.21-14.91-22.14-17.2-9.1-2.1-18.29-3.84-27.49-5.42-6.54-1.12-12.27-3.46-17.06-8.18-2.37-2.34-5.13-4.29-7.78-6.33-15.35-11.81-32.67-19.04-51.77-22.03-14.1-2.21-28.27-2.36-42.43-.79-14.34 1.59-27.61 6.24-39.47 14.59-7.74 5.45-15.54 10.84-24.31 14.5-6.65 2.78-13.48 5.14-20.3 7.51-4.16 1.44-7.13 4.09-9.2 7.87-2.24 4.09-3.85 8.41-4.45 13.04-.22 1.74-.66 3.2-1.97 4.47-.71.69-1.18 1.83-1.33 2.83-.46 3.03-1.04 6.11-.97 9.15.18 8 4.04 12.7 11.54 14.53 1.44.35 2.93.57 4.41.62 2.94.09 5.89.03 8.87.03-3.51-18.86 11.39-32.76 25.7-33.14 7.41-.2 13.98 1.91 19.47 6.86 7.79 7.03 10.48 15.91 8.83 26.13h114.71c-.99-5.54-.62-10.93 1.57-16.11 2.16-5.13 5.55-9.27 10.2-12.35 4.69-3.11 9.87-4.63 15.5-4.55 7.48.11 13.93 2.82 19.14 8.14 6.8 6.95 9.07 15.38 7.42 25.07 3.69 0 7.24.06 10.79-.01 12.65-.23 17.38-10.71 16.52-19.11zm-216.16-35.02c-.1-.14-.21-.28-.31-.41.7-.6 1.42-1.18 2.11-1.8 13.58-12.22 29.47-19.07 47.68-20.45 3.86-.29 7.75-.29 11.62-.43.73-.03 1.35-.04 1.42 1 .53 7.62 1.1 15.25 1.68 23.14-21.54-.35-42.87-.7-64.2-1.04zm134.33 2.19c-19.5-.31-38.99-.63-58.49-.93-.82-.01-1.38-.05-1.46-1.14-.51-7.47-1.08-14.94-1.63-22.41-.02-.31 0-.63 0-1.25 24.2.41 45.19 8.07 62.33 25.61-.32.05-.54.13-.76.12z"/><path d="m88.38 10.8c.63-.73 1.13-1.31 1.7-1.97-.38-.34-.7-.63-1.05-.95 2.18-.08 1.22 1.59 1.52 2.3-.7.2-1.3.37-2.16.61z"/></g></svg>