<svg viewBox="0 0 237 236.92" xmlns="http://www.w3.org/2000/svg"><g fill="#25bea5"><path d="m118.73 0c65.39.04 118.27 53.02 118.27 118.52 0 65.69-53.11 118.52-119.06 118.4-65.25-.11-118-53.27-117.94-118.86.06-65.29 53.16-118.1 118.73-118.06zm82.71 185.37c30.45-34.27 36.35-99.28-7.46-142.9-41.27-41.08-108.86-41.39-150.1-.9-45.1 44.27-38.61 109.89-8.84 143.19.28-.31.67-.57.8-.92.37-1.02.64-2.08.95-3.13 7.83-26.39 24.1-45.38 49.72-55.82 2.78-1.13 6.82-1.02 9.63.11 13.15 5.31 26.74 7.3 39.63 1.38 9.01-4.14 15.83-2.05 23.12 2.33 4.12 2.48 8.31 4.94 12.09 7.9 15.77 12.32 25.49 28.59 30.45 48.76z"/><path d="m118.36 33.99c23.93-.01 42.46 18.58 42.38 42.53-.08 23.33-18.99 42.01-42.43 41.94-23.37-.07-42.07-18.89-42.06-42.32 0-23.56 18.57-42.13 42.11-42.15z"/></g></svg>