<svg viewBox="0 0 237 237.07" xmlns="http://www.w3.org/2000/svg"><path d="m79.96 119.74c-24.79-24.13-46.3-44.78-67.48-65.76-15.05-14.9-16.48-32.09-4.34-44.74 12.88-13.42 29.68-12.28 45.78 3.76 21.14 21.06 41.9 42.49 64.01 64.96 22.56-22.7 43.43-44.63 65.48-65.31 6.4-6.01 15.87-10.78 24.48-11.9 11.58-1.5 20.75 5.52 25.97 16.53 5.91 12.47 2.84 23.62-6.12 32.94-17.27 17.96-35.02 35.45-52.74 52.97-4.59 4.54-9.79 8.46-16.4 14.12 10.7 10.74 19.7 19.75 28.67 28.79 14.03 14.16 28.62 27.81 41.85 42.68 11.47 12.9 10.03 29.18-1.77 40.19-11.53 10.76-28.45 11.08-40.41-.71-22.67-22.38-44.63-45.47-68.05-69.46-19.63 19.82-37.8 38.18-56 56.54-3.86 3.89-7.63 7.88-11.67 11.59-13.93 12.76-30.87 13.32-42.73 1.53-11.66-11.59-11.36-29.48 1.46-42.69 18.4-18.95 37.17-37.53 55.98-56.07 3.17-3.13 7.33-5.26 14.01-9.95z" fill="#25bea5"/></svg>